<?xml version="1.0" encoding="UTF-8"?>
<svg version="1.1" xmlns="http://www.w3.org/2000/svg" width="487" height="228">
<path d="M0 0 C0.598125 0.226875 1.19625 0.45375 1.8125 0.6875 C1.8125 1.6775 1.8125 2.6675 1.8125 3.6875 C2.34359375 3.90148437 2.8746875 4.11546875 3.421875 4.3359375 C6.72067526 6.20094549 9.32241708 8.72974242 12.0625 11.3125 C12.61679688 11.828125 13.17109375 12.34375 13.7421875 12.875 C15.1027712 14.14175035 16.45815837 15.41407815 17.8125 16.6875 C17.1525 18.6675 16.4925 20.6475 15.8125 22.6875 C16.47636719 23.20699219 17.14023438 23.72648437 17.82421875 24.26171875 C22.40865916 27.88242279 26.74845972 31.49645846 30.8125 35.6875 C31.8025 36.1825 31.8025 36.1825 32.8125 36.6875 C32.131875 35.635625 31.45125 34.58375 30.75 33.5 C28.74279271 30.02732303 28.74279271 30.02732303 29.3125 27.25 C30.1185161 23.11916751 27.76498824 20.25259891 25.8125 16.6875 C24.69264608 14.0352144 23.72301944 11.41905832 22.8125 8.6875 C22.1525 8.6875 21.4925 8.6875 20.8125 8.6875 C20.1525 6.3775 19.4925 4.0675 18.8125 1.6875 C23.2826619 -1.29260793 27.55188162 -0.71980512 32.8125 -0.75 C33.823125 -0.78287109 34.83375 -0.81574219 35.875 -0.84960938 C36.844375 -0.85669922 37.81375 -0.86378906 38.8125 -0.87109375 C39.699375 -0.88454834 40.58625 -0.89800293 41.5 -0.91186523 C43.8125 -0.3125 43.8125 -0.3125 45.60229492 1.64013672 C47.26574598 5.82879843 47.22370926 9.53638188 47.17578125 14.00390625 C47.17652901 15.34412086 47.17652901 15.34412086 47.17729187 16.71141052 C47.17495716 18.59498323 47.16526431 20.47855939 47.14868164 22.36206055 C47.12505239 25.24361058 47.12812991 28.1242368 47.13476562 31.00585938 C47.12918961 32.83854718 47.12208021 34.67123109 47.11328125 36.50390625 C47.11464836 37.79464806 47.11464836 37.79464806 47.11604309 39.11146545 C47.10651108 39.9158757 47.09697906 40.72028595 47.0871582 41.54907227 C47.08255081 42.25346939 47.07794342 42.95786652 47.07319641 43.68360901 C46.77008302 46.01354594 45.96076528 47.65304654 44.8125 49.6875 C34.75667167 50.46208925 24.71037227 50.83734588 14.625 50.9375 C13.55064697 50.95876953 12.47629395 50.98003906 11.36938477 51.00195312 C10.34643311 51.00646484 9.32348145 51.01097656 8.26953125 51.015625 C7.36178955 51.0249707 6.45404785 51.03431641 5.51879883 51.04394531 C2.17156996 50.60308341 -0.2558593 49.31873154 -3.1875 47.6875 C-3.21255615 46.46643555 -3.2376123 45.24537109 -3.26342773 43.98730469 C-3.35763579 39.45480955 -3.45782384 34.92246286 -3.55981445 30.39013672 C-3.6031126 28.42890904 -3.64479131 26.4676449 -3.68481445 24.50634766 C-3.74264099 21.68641172 -3.80629984 18.86665839 -3.87109375 16.046875 C-3.88780624 15.17069519 -3.90451874 14.29451538 -3.92173767 13.39178467 C-3.94168289 12.57123596 -3.96162811 11.75068726 -3.98217773 10.90527344 C-3.99772202 10.18579529 -4.0132663 9.46631714 -4.02928162 8.72503662 C-4.12655546 6.64569773 -4.12655546 6.64569773 -4.77455139 4.53717041 C-4.91082443 3.92677917 -5.04709747 3.31638794 -5.1875 2.6875 C-3.58493056 0.24147296 -2.95482043 -0.4221172 0 0 Z " fill="#CE9873" transform="translate(102.1875,84.3125)"/>
<path d="M0 0 C1.75471386 0.90761062 3.50359264 1.82650711 5.25 2.75 C6.22453125 3.26046875 7.1990625 3.7709375 8.203125 4.296875 C10.91493199 5.94819881 12.86796403 7.66491299 15 10 C14.67 10.66 14.34 11.32 14 12 C13.01 12 12.02 12 11 12 C13.66417995 17.01492697 17.79619591 23.39809796 23 26 C23 26.66 23 27.32 23 28 C24.051875 27.7834375 24.051875 27.7834375 25.125 27.5625 C29.06089807 28.16144101 30.00111841 30.00533921 32.375 33.046875 C34.54737245 35.65789958 37.04727263 37.70493499 39.6796875 39.8359375 C40.11539063 40.22007812 40.55109375 40.60421875 41 41 C41 41.33 41 41.66 41 42 C35.48245195 42.07402793 29.96519144 42.12854366 24.44726562 42.16479492 C22.56928474 42.17990325 20.69133924 42.20039094 18.81347656 42.22631836 C16.11774981 42.26261246 13.42248854 42.27970545 10.7265625 42.29296875 C9.88380768 42.30845261 9.04105286 42.32393646 8.17276001 42.33988953 C5.80712891 42.34057617 5.80712891 42.34057617 2 42 C-0.62202981 38.06695528 -0.25148527 34.73374931 -0.1953125 30.17578125 C-0.1924826 29.31438034 -0.18965271 28.45297943 -0.18673706 27.56547546 C-0.17554237 24.81434231 -0.15043921 22.06353475 -0.125 19.3125 C-0.11496927 17.44727033 -0.10584359 15.58203555 -0.09765625 13.71679688 C-0.07560538 9.1444058 -0.04108049 4.57225811 0 0 Z " fill="#F17733" transform="translate(102,91)"/>
<path d="M0 0 C3.10408807 -0.05807043 6.2080364 -0.09361914 9.3125 -0.125 C10.19357422 -0.14175781 11.07464844 -0.15851563 11.98242188 -0.17578125 C12.82998047 -0.18222656 13.67753906 -0.18867187 14.55078125 -0.1953125 C15.72120972 -0.21102295 15.72120972 -0.21102295 16.9152832 -0.22705078 C19 0 19 0 22 2 C22.38095093 3.8215332 22.38095093 3.8215332 22.38818359 6.05078125 C22.39764008 6.88504639 22.40709656 7.71931152 22.4168396 8.57885742 C22.41076691 9.48095947 22.40469421 10.38306152 22.3984375 11.3125 C22.40130768 12.23716064 22.40417786 13.16182129 22.40713501 14.11450195 C22.40917849 16.07145804 22.40362882 18.02843443 22.39111328 19.98535156 C22.37506364 22.98809293 22.39095237 25.98948821 22.41015625 28.9921875 C22.40817387 30.89062798 22.4043303 32.78906763 22.3984375 34.6875 C22.40754654 36.04065308 22.40754654 36.04065308 22.4168396 37.42114258 C22.40738312 38.25540771 22.39792664 39.08967285 22.38818359 39.94921875 C22.38579681 40.68487061 22.38341003 41.42052246 22.38095093 42.1784668 C22 44 22 44 19 46 C17.99157547 44.56839732 16.99352109 43.12948547 16 41.6875 C15.1646875 40.48673828 15.1646875 40.48673828 14.3125 39.26171875 C13 37 13 37 13 34 C12.01 33.67 11.02 33.34 10 33 C8.8125 29.4375 8.8125 29.4375 8 26 C8.66 26 9.32 26 10 26 C7.48089304 19.30213914 4.53825866 12.98019818 1.171875 6.6640625 C0 4 0 4 0 0 Z " fill="#F49F45" transform="translate(125,86)"/>
<path d="M0 0 C0.495 14.355 0.495 14.355 1 29 C-1.31 29.66 -3.62 30.32 -6 31 C-7.50571746 28.87885041 -9.00468679 26.75346385 -10.5 24.625 C-10.92925781 24.02171875 -11.35851562 23.4184375 -11.80078125 22.796875 C-15 18.2265625 -15 18.2265625 -15 16 C-15.66 16 -16.32 16 -17 16 C-17.06058594 16.92683594 -17.12117187 17.85367188 -17.18359375 18.80859375 C-17.26738281 20.00613281 -17.35117188 21.20367187 -17.4375 22.4375 C-17.51871094 23.63246094 -17.59992188 24.82742187 -17.68359375 26.05859375 C-18 29 -18 29 -19 30 C-20.99958364 30.04080783 -23.00045254 30.04254356 -25 30 C-25.8632601 26.28111134 -26.11721556 22.85703512 -26.09765625 19.04296875 C-26.09443359 17.93115234 -26.09121094 16.81933594 -26.08789062 15.67382812 C-26.07951172 14.52333984 -26.07113281 13.37285156 -26.0625 12.1875 C-26.05798828 11.01767578 -26.05347656 9.84785156 -26.04882812 8.64257812 C-26.0370693 5.76166642 -26.02063426 2.88085956 -26 0 C-22.96618218 -0.388951 -20.93143104 -0.64545271 -18 0 C-15.57011814 2.13877132 -14.09918348 4.70897223 -12.5 7.5 C-12.05914062 8.21542969 -11.61828125 8.93085937 -11.1640625 9.66796875 C-10.08352417 11.42971602 -9.03818225 13.21296498 -8 15 C-7.67 10.05 -7.34 5.1 -7 0 C-2 -1 -2 -1 0 0 Z " fill="#262435" transform="translate(207,95)"/>
<path d="M0 0 C3.0625 2.3125 3.0625 2.3125 5 5 C5.3125 7.8125 5.3125 7.8125 5 10 C0.41363529 9.56732408 -1.84561842 9.29776257 -5 6 C-8.12414314 5.68758569 -9.99825776 5.99941925 -13 7 C-13.59349465 13.60727363 -13.59349465 13.60727363 -11.375 19.625 C-8.40357459 21.34529892 -6.37909451 21.30719041 -3 21 C-2.67 19.68 -2.34 18.36 -2 17 C-3.65 17.33 -5.3 17.66 -7 18 C-7.66 17.01 -8.32 16.02 -9 15 C-8.125 12.3125 -8.125 12.3125 -7 10 C-6.13375 10.165 -5.2675 10.33 -4.375 10.5 C-1.18774801 10.97218548 1.78485027 11.07655118 5 11 C6.39143652 14.86510145 5.96911452 18.05431946 5 22 C2.13337093 25.58328633 -0.49144513 27.97532844 -5 29 C-9.7108076 29.14857835 -13.64507508 28.69656544 -17.4375 25.75 C-21.49447587 21.39617224 -22.43842591 18.05092552 -22.24609375 12.0546875 C-21.63747086 6.9731694 -20.01507179 3.82069634 -16.0625 0.625 C-10.27743445 -2.44462662 -6.11524028 -2.20888572 0 0 Z " fill="#211F2E" transform="translate(256,96)"/>
<path d="M0 0 C0.66 0.66 1.32 1.32 2 2 C4.57061311 2.64767793 4.57061311 2.64767793 7 3 C7.78065083 7.42368805 7.91079292 10.64843381 7 15 C7 16.64596518 7.02320457 18.29200395 7.0625 19.9375 C7.07471674 24.0423253 7.05585391 27.33521694 5 31 C0.30843187 33.96813494 -3.44070348 34.47900529 -8.91015625 33.65625 C-12.1886476 32.62674244 -13.93761045 30.66114781 -16 28 C-16 27.67 -16 27.34 -16 27 C-14.35 26.67 -12.7 26.34 -11 26 C-11.639375 25.236875 -12.27875 24.47375 -12.9375 23.6875 C-16.18466552 19.45634493 -16.27024189 16.22467664 -16 11 C-14.99680703 7.60457764 -13.9541455 5.03734172 -11 3 C-7.13853697 2.17254364 -4.77058297 1.74313901 -1 3 C-0.67 2.01 -0.34 1.02 0 0 Z M6 5 C7 9 7 9 7 9 Z M-7 9 C-8.76856687 13.06457121 -8.76856687 13.06457121 -8.3125 17.3125 C-7.01444532 19.30335167 -7.01444532 19.30335167 -4 20 C-2.37506099 18.87890434 -2.37506099 18.87890434 -1 17 C-0.74734595 13.90498792 -0.60064987 11.79870027 -2 9 C-3.65 9 -5.3 9 -7 9 Z M-8 26 C-7.67 26.66 -7.34 27.32 -7 28 C-5.35 28 -3.7 28 -2 28 C-1.34 26.35 -0.68 24.7 0 23 C-2.60939857 23 -5.6401989 24.97026861 -8 26 Z " fill="#2B2936" transform="translate(325,99)"/>
<path d="M0 0 C3.1875 2.25 3.1875 2.25 5 5 C5 6.32 5 7.64 5 9 C2.69 9 0.38 9 -2 9 C-2.33 8.34 -2.66 7.68 -3 7 C-6.02934491 6.34227572 -6.02934491 6.34227572 -9 6 C-8.87661883 7.98225126 -8.87661883 7.98225126 -8 10 C-5.81168717 10.96204788 -5.81168717 10.96204788 -3.1875 11.4375 C0.17134958 12.34829278 1.95030254 12.96159742 4.75 15.125 C6.37863222 18.87085412 5.81781785 21.12688537 4.87109375 25.01171875 C4 27 4 27 1 29 C-4.61273036 30.34879567 -9.62940812 30.30168224 -15 28 C-16.3125 25.9375 -16.3125 25.9375 -17 24 C-17.66 23.67 -18.32 23.34 -19 23 C-18.67 21.68 -18.34 20.36 -18 19 C-16.35 19 -14.7 19 -13 19 C-13 18.34 -13 17.68 -13 17 C-12.34 17.33 -11.68 17.66 -11 18 C-11 19.32 -11 20.64 -11 22 C-8.69 22 -6.38 22 -4 22 C-3.67 21.01 -3.34 20.02 -3 19 C-3.83144531 18.75765625 -4.66289062 18.5153125 -5.51953125 18.265625 C-6.60621094 17.93046875 -7.69289062 17.5953125 -8.8125 17.25 C-9.89144531 16.92515625 -10.97039062 16.6003125 -12.08203125 16.265625 C-15.22625627 14.90186475 -16.40641794 14.00134006 -18 11 C-17.87655181 7.48172645 -17.73585873 5.00344373 -15.625 2.125 C-11.11000926 -1.00076282 -5.23959419 -0.68841383 0 0 Z " fill="#272535" transform="translate(227,95)"/>
<path d="M0 0 C0.34057617 2.79736328 0.34057617 2.79736328 0.29296875 6.3203125 C0.28330078 7.57714844 0.27363281 8.83398438 0.26367188 10.12890625 C0.23853516 11.44761719 0.21339844 12.76632813 0.1875 14.125 C0.17245483 15.46482903 0.15876613 16.80467404 0.14648438 18.14453125 C0.11102872 21.43008842 0.06160849 24.71484582 0 28 C-6.75 29.125 -6.75 29.125 -9 28 C-10.093125 28.20625 -11.18625 28.4125 -12.3125 28.625 C-16 29 -16 29 -18.75 28.125 C-22.10322859 24.95806188 -23.28575448 21.5185427 -24 17 C-23.29438049 12.69572098 -22.25049445 9.01831627 -19 6 C-15.35315214 4.9912974 -12.59076177 4.757044 -9 6 C-8.67 3.69 -8.34 1.38 -8 -1 C-3.375 -2.25 -3.375 -2.25 0 0 Z M-15 13 C-16.00932746 15.95034182 -16.24408113 17.3979332 -15.0625 20.3125 C-14.711875 20.869375 -14.36125 21.42625 -14 22 C-12.35 22 -10.7 22 -9 22 C-7.60064987 19.20129973 -7.74734595 17.09501208 -8 14 C-9.31318262 12.10041919 -9.31318262 12.10041919 -11 11 C-12.46225016 10.90754997 -12.46225016 10.90754997 -15 13 Z " fill="#2A2837" transform="translate(308,96)"/>
<path d="M0 0 C2.77907578 3.8029458 2.32191398 8.27025329 2.3125 12.8125 C2.31636719 14.69001953 2.31636719 14.69001953 2.3203125 16.60546875 C2.1875 19.625 2.1875 19.625 1.1875 20.625 C-4.34191176 20.86029412 -4.34191176 20.86029412 -6.8125 19.625 C-7.92625 19.810625 -9.04 19.99625 -10.1875 20.1875 C-13.8125 20.625 -13.8125 20.625 -16.125 20 C-18.43950313 18.11410856 -19.06111052 16.49394164 -19.8125 13.625 C-19.65517172 10.95041932 -19.08925523 9.93634964 -17.3125 7.9375 C-13.6330581 6.005793 -9.91585782 5.8792679 -5.8125 5.625 C-6.1425 4.965 -6.4725 4.305 -6.8125 3.625 C-9.19814077 4.20084432 -11.47932784 4.84727595 -13.8125 5.625 C-16 5.1875 -16 5.1875 -17.8125 4.625 C-17.5 2.25 -17.5 2.25 -16.8125 -0.375 C-11.13858686 -4.15760876 -5.54053372 -4.20316351 0 0 Z M-11.8125 11.625 C-11.8125 12.615 -11.8125 13.605 -11.8125 14.625 C-10.1625 14.295 -8.5125 13.965 -6.8125 13.625 C-6.4825 12.635 -6.1525 11.645 -5.8125 10.625 C-9.5888932 10.3268576 -9.5888932 10.3268576 -11.8125 11.625 Z " fill="#232130" transform="translate(281.8125,104.375)"/>
<path d="M0 0 C3.97137482 3.71237211 5.61235713 6.57299983 6 12 C5.34 12 4.68 12 4 12 C4 12.99 4 13.98 4 15 C4.66 15.33 5.32 15.66 6 16 C4.79625154 19.61124537 3.25546915 20.45200414 -0.03125 22.203125 C-3.17293262 23.47475844 -5.66964562 23.43171261 -9 23 C-12.62342508 21.3529886 -15.16816086 19.5672657 -17 16 C-17.38298167 11.1744309 -17.45749614 7.30061825 -15 3 C-10.35356641 -1.33667135 -6.07660664 -1.59910701 0 0 Z M-9 6 C-8.67 6.66 -8.34 7.32 -8 8 C-6.02 8 -4.04 8 -2 8 C-2 7.34 -2 6.68 -2 6 C-5.58327753 4.99782936 -5.58327753 4.99782936 -9 6 Z M-9 13 C-8.34 14.32 -7.68 15.64 -7 17 C-6.46375 16.855625 -5.9275 16.71125 -5.375 16.5625 C-2.60084173 15.90546252 0.18525388 15.44780052 3 15 C3 14.01 3 13.02 3 12 C1.37509046 11.97301811 -0.24994633 11.95361243 -1.875 11.9375 C-2.77992188 11.92589844 -3.68484375 11.91429688 -4.6171875 11.90234375 C-7.0168585 11.83750743 -7.0168585 11.83750743 -9 13 Z " fill="#2B2A34" transform="translate(350,102)"/>
<path d="M0 0 C0.84498047 -0.00128906 1.68996094 -0.00257812 2.56054688 -0.00390625 C3.44935547 -0.00003906 4.33816406 0.00382812 5.25390625 0.0078125 C6.13884766 0.00394531 7.02378906 0.00007813 7.93554688 -0.00390625 C8.78181641 -0.00261719 9.62808594 -0.00132813 10.5 0 C11.27915771 0.00112793 12.05831543 0.00225586 12.86108398 0.00341797 C14.81640625 0.1328125 14.81640625 0.1328125 16.81640625 1.1328125 C16.85912725 2.79893155 16.85704457 4.46664135 16.81640625 6.1328125 C15.81640625 7.1328125 15.81640625 7.1328125 12.875 7.23046875 C11.08255859 7.21306641 11.08255859 7.21306641 9.25390625 7.1953125 C7.45759766 7.18177734 7.45759766 7.18177734 5.625 7.16796875 C4.69816406 7.15636719 3.77132812 7.14476563 2.81640625 7.1328125 C2.81640625 8.7828125 2.81640625 10.4328125 2.81640625 12.1328125 C6.77640625 12.1328125 10.73640625 12.1328125 14.81640625 12.1328125 C15.81640625 14.1328125 15.81640625 14.1328125 15.50390625 16.1953125 C14.81640625 18.1328125 14.81640625 18.1328125 12.81640625 19.1328125 C9.81166128 19.26840568 6.82571778 19.17580266 3.81640625 19.1328125 C3.81640625 22.7628125 3.81640625 26.3928125 3.81640625 30.1328125 C-1.18359375 31.1328125 -1.18359375 31.1328125 -4.18359375 31.1328125 C-4.35086812 26.87888483 -4.51146133 22.62477441 -4.66577148 18.37036133 C-4.71925612 16.92204949 -4.77459034 15.47380475 -4.83178711 14.02563477 C-4.91351887 11.94822668 -4.98867143 9.8706708 -5.0625 7.79296875 C-5.10963135 6.54136963 -5.1567627 5.28977051 -5.20532227 4.00024414 C-5.17176756 -0.42784535 -3.98682698 0.00577981 0 0 Z " fill="#212030" transform="translate(163.18359375,93.8671875)"/>
<path d="M0 0 C3.33761045 2.15090451 4.73470933 3.20412799 6 7 C5.34 7.66 4.68 8.32 4 9 C1.27130593 8.96712417 -1.2966618 8.43602229 -4 8 C-1.88717207 9.12311028 -1.88717207 9.12311028 1 9.9375 C4 11 4 11 6 13 C6.54766734 18.14807302 6.54766734 18.14807302 4.875 20.75 C1.06536403 23.28975731 -2.05482937 24.04888814 -6.625 23.8125 C-9.94922334 23.01222401 -11.64761053 22.44286599 -14 20 C-14.75 17.8125 -14.75 17.8125 -15 16 C-11.535 15.505 -11.535 15.505 -8 15 C-7.67 15.99 -7.34 16.98 -7 18 C-5.68 17.34 -4.36 16.68 -3 16 C-3.61488281 15.84144531 -4.22976563 15.68289062 -4.86328125 15.51953125 C-11.42370362 13.62569321 -11.42370362 13.62569321 -14.1875 10.625 C-15 8 -15 8 -14.625 5.375 C-11.32337036 0.54954129 -5.59812198 -0.85188813 0 0 Z " fill="#2C2936" transform="translate(385,101)"/>
<path d="M0 0 C1.98 0 3.96 0 6 0 C6.5534764 2.07553648 7 3.84365964 7 6 C7.99 5.67 8.98 5.34 10 5 C10.625 7.375 10.625 7.375 11 10 C10.34 10.66 9.68 11.32 9 12 C8.34 11.67 7.68 11.34 7 11 C7 14.63 7 18.26 7 22 C7.99 22 8.98 22 10 22 C10.33 23.98 10.66 25.96 11 28 C7.40997619 29.1966746 5.61734062 29.05505768 2 28 C-1.70782994 24.16431386 -1.46796135 19.39287613 -1.69140625 14.328125 C-1.79324219 13.55984375 -1.89507812 12.7915625 -2 12 C-2.66 11.67 -3.32 11.34 -4 11 C-4 9.35 -4 7.7 -4 6 C-3.01 5.67 -2.02 5.34 -1 5 C-0.67 3.35 -0.34 1.7 0 0 Z " fill="#2C2A3B" transform="translate(359,96)"/>
<path d="M0 0 C-0.33 1.32 -0.66 2.64 -1 4 C-1.99 3.67 -2.98 3.34 -4 3 C-7.39998727 4.13332909 -7.66252304 4.53563161 -9.25 7.5625 C-11.74578508 12.86842477 -11.04523261 16.77719944 -9.25 22.3125 C-7.41689932 24.78718592 -5.83583989 25.76702614 -3 27 C1.32791783 27.55927368 5.26979845 27.48680103 9 25 C8.34 24.34 7.68 23.68 7 23 C6.67 23.33 6.34 23.66 6 24 C4.0390625 24.203125 4.0390625 24.203125 1.625 24.25 C0.83351562 24.27578125 0.04203125 24.3015625 -0.7734375 24.328125 C-3.50636903 23.9253772 -4.31946167 23.14359688 -6 21 C-6.8125 19 -6.8125 19 -7 17 C-6.34 16.01 -5.68 15.02 -5 14 C-4.608125 15.134375 -4.21625 16.26875 -3.8125 17.4375 C-2.42197353 21.16270811 -2.42197353 21.16270811 0.5 21.9375 C2.33287902 21.98332198 4.1665483 22 6 22 C6.33 20.68 6.66 19.36 7 18 C5.35 18.33 3.7 18.66 2 19 C1.34 18.01 0.68 17.02 0 16 C0.875 13.3125 0.875 13.3125 2 11 C2.86625 11.165 3.7325 11.33 4.625 11.5 C7.81225199 11.97218548 10.78485027 12.07655118 14 12 C15.39143652 15.86510145 14.96911452 19.05431946 14 23 C11.13337093 26.58328633 8.50855487 28.97532844 4 30 C-0.7108076 30.14857835 -4.64507508 29.69656544 -8.4375 26.75 C-12.49447587 22.39617224 -13.43842591 19.05092552 -13.24609375 13.0546875 C-12.63585235 7.95965613 -10.98013048 4.81329976 -7.0625 1.5625 C-4 0 -4 0 0 0 Z " fill="#25232F" transform="translate(247,95)"/>
<path d="M0 0 C3.10408807 -0.05807043 6.2080364 -0.09361914 9.3125 -0.125 C10.19357422 -0.14175781 11.07464844 -0.15851563 11.98242188 -0.17578125 C12.82998047 -0.18222656 13.67753906 -0.18867187 14.55078125 -0.1953125 C15.72120972 -0.21102295 15.72120972 -0.21102295 16.9152832 -0.22705078 C19 0 19 0 22 2 C22.38095093 3.8215332 22.38095093 3.8215332 22.38818359 6.05078125 C22.39764008 6.88504639 22.40709656 7.71931152 22.4168396 8.57885742 C22.41076691 9.48095947 22.40469421 10.38306152 22.3984375 11.3125 C22.40130768 12.23716064 22.40417786 13.16182129 22.40713501 14.11450195 C22.40917849 16.07145804 22.40362882 18.02843443 22.39111328 19.98535156 C22.37506364 22.98809293 22.39095237 25.98948821 22.41015625 28.9921875 C22.40817387 30.89062798 22.4043303 32.78906763 22.3984375 34.6875 C22.40754654 36.04065308 22.40754654 36.04065308 22.4168396 37.42114258 C22.40738312 38.25540771 22.39792664 39.08967285 22.38818359 39.94921875 C22.38579681 40.68487061 22.38341003 41.42052246 22.38095093 42.1784668 C22 44 22 44 19 46 C17.99157547 44.56839732 16.99352109 43.12948547 16 41.6875 C15.1646875 40.48673828 15.1646875 40.48673828 14.3125 39.26171875 C13 37 13 37 13 34 C12.01 33.67 11.02 33.34 10 33 C8.8125 29.4375 8.8125 29.4375 8 26 C9.32 26.33 10.64 26.66 12 27 C12 28.32 12 29.64 12 31 C12.66 31 13.32 31 14 31 C14.12375 31.639375 14.2475 32.27875 14.375 32.9375 C14.58125 33.618125 14.7875 34.29875 15 35 C15.66 35.33 16.32 35.66 17 36 C17.33 36.99 17.66 37.98 18 39 C19.38421065 37.84331499 19.38421065 37.84331499 19.11352539 34.67358398 C19.11336629 33.19774444 19.10767314 31.72189931 19.09765625 30.24609375 C19.09553383 29.08292381 19.09553383 29.08292381 19.09336853 27.89625549 C19.08775345 25.40996506 19.07519846 22.9237634 19.0625 20.4375 C19.05748694 18.75586067 19.0529237 17.07421994 19.04882812 15.39257812 C19.03777913 11.26168434 19.02050445 7.13085724 19 3 C14.05 2.67 9.1 2.34 4 2 C4.88893435 8.33452549 4.88893435 8.33452549 7 14 C7.66 14 8.32 14 9 14 C10.42258812 17.82320557 11.24042276 20.91281305 11 25 C7.94243015 21.94243015 6.66363962 18.1122289 4.9375 14.1875 C4.39125977 12.97610352 4.39125977 12.97610352 3.83398438 11.74023438 C2.11330132 7.85677041 0.5603461 4.25000966 0 0 Z " fill="#E3A159" transform="translate(125,86)"/>
<path d="M0 0 C0.66 0.66 1.32 1.32 2 2 C4.57061311 2.64767793 4.57061311 2.64767793 7 3 C7.78065083 7.42368805 7.91079292 10.64843381 7 15 C6.90736234 18.33495585 6.94171089 21.66456775 7 25 C6.01 25.33 5.02 25.66 4 26 C4 25.01 4 24.02 4 23 C3.01 23.33 2.02 23.66 1 24 C1.33 22.35 1.66 20.7 2 19 C1.34 19 0.68 19 0 19 C0.06510417 17.01432292 0.13020833 15.02864583 0.1953125 13.04296875 C0.13254462 10.68640281 0.13254462 10.68640281 -2 8 C-4.45672892 7.33314062 -4.45672892 7.33314062 -7 8 C-8.8624438 10.40858714 -8.8624438 10.40858714 -10 13 C-9.34 13.33 -8.68 13.66 -8 14 C-8.66 14 -9.32 14 -10 14 C-10 14.66 -10 15.32 -10 16 C-11.98 16.99 -11.98 16.99 -14 18 C-15.15027857 14.54916429 -14.99043071 12.96969726 -13.875 9.4375 C-11.90298484 5.82213888 -10.5885477 4.00291034 -7 2 C-3.6875 2.25 -3.6875 2.25 -1 3 C-0.67 2.01 -0.34 1.02 0 0 Z M6 5 C7 9 7 9 7 9 Z " fill="#232130" transform="translate(325,99)"/>
<path d="M0 0 C0.33 0.99 0.66 1.98 1 3 C1.82757813 3.41378906 1.82757813 3.41378906 2.671875 3.8359375 C6.03169878 5.51584939 8.54086343 8.07141194 11.25 10.625 C11.80429688 11.140625 12.35859375 11.65625 12.9296875 12.1875 C14.2902712 13.45425035 15.64565837 14.72657815 17 16 C16.34 17.98 15.68 19.96 15 22 C15.69867188 22.53109375 16.39734375 23.0621875 17.1171875 23.609375 C18.02726562 24.31578125 18.93734375 25.0221875 19.875 25.75 C20.77992187 26.44609375 21.68484375 27.1421875 22.6171875 27.859375 C24.85047147 29.86566945 25.91958282 31.24307341 27 34 C25.35 34 23.7 34 22 34 C22 33.34 22 32.68 22 32 C21.42765625 31.76152344 20.8553125 31.52304688 20.265625 31.27734375 C17.52660663 29.73310409 15.83329787 27.91199704 13.75 25.5625 C13.04359375 24.78003906 12.3371875 23.99757813 11.609375 23.19140625 C10 21 10 21 10 18 C10.99 17.34 11.98 16.68 13 16 C9.23197052 11.9894349 9.23197052 11.9894349 0 7 C0 19.54 0 32.08 0 45 C12.87 45.495 12.87 45.495 26 46 C26 46.33 26 46.66 26 47 C21.52084672 47.02886338 17.04171709 47.04675187 12.5625 47.0625 C11.28310547 47.07087891 10.00371094 47.07925781 8.68554688 47.08789062 C7.47060547 47.09111328 6.25566406 47.09433594 5.00390625 47.09765625 C3.87799072 47.10289307 2.7520752 47.10812988 1.59204102 47.11352539 C-1 47 -1 47 -2 46 C-2.0927833 44.61839885 -2.11747043 43.23211962 -2.11352539 41.84741211 C-2.11341209 40.52615578 -2.11341209 40.52615578 -2.11329651 39.1782074 C-2.10555458 37.74227989 -2.10555458 37.74227989 -2.09765625 36.27734375 C-2.0962413 35.30213272 -2.09482635 34.32692169 -2.09336853 33.32215881 C-2.08775133 30.19390857 -2.07519593 27.06572877 -2.0625 23.9375 C-2.05748722 21.82226666 -2.05292393 19.70703219 -2.04882812 17.59179688 C-2.03777631 12.39450704 -2.02102146 7.19725855 -2 2 C-1.34 2 -0.68 2 0 2 C0 1.34 0 0.68 0 0 Z " fill="#E07D44" transform="translate(103,85)"/>
<path d="M0 0 C0 9.57 0 19.14 0 29 C-1.32 29.33 -2.64 29.66 -4 30 C-9 24.25 -9 24.25 -9 22 C-8.34 22 -7.68 22 -7 22 C-6.67 15.07 -6.34 8.14 -6 1 C-1 0 -1 0 0 0 Z " fill="#221F31" transform="translate(206,94)"/>
<path d="M0 0 C0.66 0 1.32 0 2 0 C3.78227064 2.38426888 5.43700301 4.76232286 7.0625 7.25 C7.52205078 7.93191406 7.98160156 8.61382812 8.45507812 9.31640625 C12.41778139 15.3099222 12.41778139 15.3099222 13 19 C12.67 19.66 12.34 20.32 12 21 C11.34 21 10.68 21 10 21 C10.75827092 22.17487036 11.53207755 23.33972592 12.3125 24.5 C12.74175781 25.1496875 13.17101562 25.799375 13.61328125 26.46875 C14.29970703 27.22671875 14.29970703 27.22671875 15 28 C15.99 28 16.98 28 18 28 C18.33 18.76 18.66 9.52 19 0 C19.33 0 19.66 0 20 0 C20.495 14.355 20.495 14.355 21 29 C18.69 29.66 16.38 30.32 14 31 C12.49428254 28.87885041 10.99531321 26.75346385 9.5 24.625 C9.07074219 24.02171875 8.64148438 23.4184375 8.19921875 22.796875 C5 18.2265625 5 18.2265625 5 16 C4.34 16 3.68 16 3 16 C1.00624891 13.00937337 0.10571418 10.39085683 -1 7 C-1.33 6.67 -1.66 6.34 -2 6 C-2.04063832 4.33382885 -2.042721 2.66611905 -2 1 C-1.67 2.32 -1.34 3.64 -1 5 C-0.01 5 0.98 5 2 5 C1.34 3.35 0.68 1.7 0 0 Z " fill="#2A2739" transform="translate(187,95)"/>
<path d="M0 0 C1.010625 -0.03287109 2.02125 -0.06574219 3.0625 -0.09960938 C4.031875 -0.10669922 5.00125 -0.11378906 6 -0.12109375 C6.886875 -0.13454834 7.77375 -0.14800293 8.6875 -0.16186523 C11 0.4375 11 0.4375 12.78979492 2.38793945 C14.45625649 6.58720745 14.41115176 10.31059172 14.36328125 14.7890625 C14.36377975 15.68491058 14.36427826 16.58075867 14.36479187 17.50375366 C14.36245738 19.39152248 14.35276581 21.27929477 14.33618164 23.16699219 C14.31252432 26.05952674 14.31563346 28.95114285 14.32226562 31.84375 C14.31669064 33.679693 14.30958189 35.51563213 14.30078125 37.3515625 C14.30214836 38.65004623 14.30214836 38.65004623 14.30354309 39.97476196 C14.29401108 40.77924774 14.28447906 41.58373352 14.2746582 42.41259766 C14.27005081 43.11921539 14.26544342 43.82583313 14.26069641 44.55386353 C14 46.4375 14 46.4375 12 49.4375 C11.34 49.4375 10.68 49.4375 10 49.4375 C10.33 48.4475 10.66 47.4575 11 46.4375 C11.11294746 45.04170727 11.17589187 43.64150091 11.20532227 42.24145508 C11.22526749 41.40081009 11.24521271 40.5601651 11.26576233 39.69404602 C11.29083107 38.33922371 11.29083107 38.33922371 11.31640625 36.95703125 C11.33718735 36.02904221 11.35796844 35.10105316 11.37937927 34.14494324 C11.44477323 31.1800376 11.50371262 28.21504328 11.5625 25.25 C11.60569487 23.2402252 11.64930947 21.23045937 11.69335938 19.22070312 C11.80044427 14.29305968 11.90174045 9.36532701 12 4.4375 C9.27498092 3.52916031 7.37766029 3.25390015 4.55078125 3.12109375 C3.70322266 3.07919922 2.85566406 3.03730469 1.98242188 2.99414062 C1.10134766 2.95482422 0.22027344 2.91550781 -0.6875 2.875 C-1.58017578 2.83181641 -2.47285156 2.78863281 -3.39257812 2.74414062 C-5.59490108 2.63814647 -7.79733473 2.53607949 -10 2.4375 C-7.3340456 9.32178094 -4.37545401 15.99936655 -1.171875 22.65234375 C0 25.4375 0 25.4375 0 28.4375 C-0.66 28.4375 -1.32 28.4375 -2 28.4375 C-1.484375 29.200625 -0.96875 29.96375 -0.4375 30.75 C0.036875 31.636875 0.51125 32.52375 1 33.4375 C0.67 34.4275 0.34 35.4175 0 36.4375 C-2.13533172 33.83796573 -3.56459104 31.81191946 -4 28.4375 C-3.67 27.4475 -3.34 26.4575 -3 25.4375 C-3.68181326 23.50456176 -3.68181326 23.50456176 -4.8125 21.5625 C-6.91557578 17.61016792 -8.5832272 13.68781839 -10 9.4375 C-10.66 9.4375 -11.32 9.4375 -12 9.4375 C-12.66 7.1275 -13.32 4.8175 -14 2.4375 C-9.5298381 -0.54260793 -5.26061838 0.03019488 0 0 Z " fill="#CBA781" transform="translate(135,83.5625)"/>
<path d="M0 0 C0 0.66 0 1.32 0 2 C0.99 2.33 1.98 2.66 3 3 C2.34 3 1.68 3 1 3 C0.67 3.99 0.34 4.98 0 6 C-1.65 6.33 -3.3 6.66 -5 7 C-5.33 7.99 -5.66 8.98 -6 10 C-5.21625 10 -4.4325 10 -3.625 10 C-0.75 10 2.125 10 5 10 C5.33 9.01 5.66 8.02 6 7 C6.6875 8.8125 6.6875 8.8125 7 11 C5.875 12.75 5.875 12.75 4 14 C0.79193623 14.32903218 -1.92122743 13.91222891 -5 13 C-5 16.20395416 -4.25664978 18.09399739 -3 21 C-6.54296104 20.3438961 -9.2507794 19.36738441 -12 17 C-12.5435972 12.18528195 -12.45392814 8.29437424 -10 4 C-6.95346684 1.15656905 -4.15397156 0 0 0 Z " fill="#1E1C2A" transform="translate(345,101)"/>
<path d="M0 0 C1.42352035 1.94797521 1.96848239 3.21580629 2.1875 5.625 C1.25 7.875 1.25 7.875 0.1875 9.625 C-0.1425 7.645 -0.4725 5.665 -0.8125 3.625 C-2.75048263 6.39760299 -2.75048263 6.39760299 -3.8125 8.625 C-5.1325 8.625 -6.4525 8.625 -7.8125 8.625 C-8.1425 7.635 -8.4725 6.645 -8.8125 5.625 C-7.8225 5.625 -6.8325 5.625 -5.8125 5.625 C-6.1425 4.965 -6.4725 4.305 -6.8125 3.625 C-9.19814077 4.20084432 -11.47932784 4.84727595 -13.8125 5.625 C-16 5.1875 -16 5.1875 -17.8125 4.625 C-17.5 2.25 -17.5 2.25 -16.8125 -0.375 C-11.13858686 -4.15760876 -5.54053372 -4.20316351 0 0 Z " fill="#343141" transform="translate(281.8125,104.375)"/>
<path d="M0 0 C2 2 2 2 2.1953125 4.3828125 C2.17210937 5.28773437 2.14890625 6.19265625 2.125 7.125 C2.10695312 8.03507812 2.08890625 8.94515625 2.0703125 9.8828125 C2.03550781 10.93082031 2.03550781 10.93082031 2 12 C2.66 12.33 3.32 12.66 4 13 C4.99 14.485 4.99 14.485 6 16 C6.66 16.33 7.32 16.66 8 17 C8 20.63 8 24.26 8 28 C3 29 3 29 0 29 C0 19.43 0 9.86 0 0 Z " fill="#2A2938" transform="translate(159,96)"/>
<path d="M0 0 C0.99 0.33 1.98 0.66 3 1 C2.195625 1.680625 1.39125 2.36125 0.5625 3.0625 C-2.42288711 6.48477302 -2.73781251 8.5428126 -3 13 C-1.68 13 -0.36 13 1 13 C1.33 12.34 1.66 11.68 2 11 C2.3403125 11.9590625 2.3403125 11.9590625 2.6875 12.9375 C3.85250896 15.27193661 3.85250896 15.27193661 6.625 15.75 C7.40875 15.8325 8.1925 15.915 9 16 C9 12.7 9 9.4 9 6 C7.35 6 5.7 6 4 6 C3.67 7.32 3.34 8.64 3 10 C2.34 10 1.68 10 1 10 C2.875 5.125 2.875 5.125 4 4 C6.375 3.625 6.375 3.625 9 4 C11.69352006 6.97216006 12.17370973 9.43053804 12.1875 13.3125 C12.0946875 15.1378125 12.0946875 15.1378125 12 17 C4.25 18.125 4.25 18.125 2 17 C1.67 17.66 1.34 18.32 1 19 C0.67 18.01 0.34 17.02 0 16 C-0.33 16.66 -0.66 17.32 -1 18 C-1.99 18 -2.98 18 -4 18 C-5.46170488 13.61488537 -5.50025768 9.69317982 -4.1875 5.25 C-3.02283686 3.04326983 -1.87882594 1.6226224 0 0 Z " fill="#333140" transform="translate(314,102)"/>
<path d="M0 0 C0.66 0 1.32 0 2 0 C3.26171875 1.3203125 3.26171875 1.3203125 4.6875 3.125 C7.41328189 6.43632022 10.35142211 9.14162743 13.6796875 11.8359375 C14.11539063 12.22007812 14.55109375 12.60421875 15 13 C15 13.33 15 13.66 15 14 C2.13 14 -10.74 14 -24 14 C-24 13.67 -24 13.34 -24 13 C-23.16227051 12.97494385 -22.32454102 12.9498877 -21.46142578 12.92407227 C-18.35647744 12.82899643 -15.25169819 12.72975975 -12.14697266 12.62768555 C-10.14105193 12.56301749 -8.13497772 12.50316894 -6.12890625 12.44335938 C-4.24365234 12.38051758 -4.24365234 12.38051758 -2.3203125 12.31640625 C-1.15773926 12.27974854 0.00483398 12.24309082 1.20263672 12.20532227 C3.9535501 12.18178341 3.9535501 12.18178341 6 11 C6 10.01 6 9.02 6 8 C4.35 8 2.7 8 1 8 C0.40267181 5.23735711 0 2.83967231 0 0 Z " fill="#D6793F" transform="translate(128,119)"/>
<path d="M0 0 C3.057952 1.73559438 5.63379989 3.38472619 8 6 C7.34 7.98 6.68 9.96 6 12 C6.69867188 12.53109375 7.39734375 13.0621875 8.1171875 13.609375 C9.02726562 14.31578125 9.93734375 15.0221875 10.875 15.75 C12.23238281 16.79414062 12.23238281 16.79414062 13.6171875 17.859375 C15.85047147 19.86566945 16.91958282 21.24307341 18 24 C16.35 24 14.7 24 13 24 C13 23.34 13 22.68 13 22 C12.14148438 21.64228516 12.14148438 21.64228516 11.265625 21.27734375 C8.52660663 19.73310409 6.83329787 17.91199704 4.75 15.5625 C4.04359375 14.78003906 3.3371875 13.99757813 2.609375 13.19140625 C1 11 1 11 1 8 C1.99 7.34 2.98 6.68 4 6 C3.34 5.38125 2.68 4.7625 2 4.125 C0 2 0 2 0 0 Z " fill="#D78A5A" transform="translate(112,95)"/>
<path d="M0 0 C-0.33 1.32 -0.66 2.64 -1 4 C-1.99 3.67 -2.98 3.34 -4 3 C-7.39998727 4.13332909 -7.66252304 4.53563161 -9.25 7.5625 C-11.74578508 12.86842477 -11.04523261 16.77719944 -9.25 22.3125 C-7.41689932 24.78718592 -5.83583989 25.76702614 -3 27 C2.27277731 27.41847439 6.03458454 26.98616619 11 25 C11 25.66 11 26.32 11 27 C5.44718974 29.95362248 1.13444607 30.82918028 -5 29 C-8.27138929 27.19029529 -10.45194151 24.92173474 -12.375 21.6875 C-13.91508527 15.06513332 -13.41552847 9.92024935 -10 4 C-6.30632183 0.935033 -4.85041092 0 0 0 Z " fill="#3A3847" transform="translate(247,95)"/>
<path d="M0 0 C0.66 0.33 1.32 0.66 2 1 C2 1.66 2 2.32 2 3 C2.66 3 3.32 3 4 3 C4.350625 3.825 4.70125 4.65 5.0625 5.5 C6.7007161 8.19432896 6.7007161 8.19432896 9.125 8.3671875 C13.71775434 8.4213853 13.71775434 8.4213853 18 7 C18.66 8.32 19.32 9.64 20 11 C15.767991 13.1160045 11.66298921 13.74826833 7 13 C3.80300595 11.34229938 1.70658208 9.95234977 -0.4375 7.0625 C-1.15660708 4.42577404 -0.72355095 2.60478343 0 0 Z " fill="#1F1B30" transform="translate(237,110)"/>
<path d="M0 0 C0.66 0 1.32 0 2 0 C2.27474561 15.50786309 2.27474561 15.50786309 1 23 C0.34 23.66 -0.32 24.32 -1 25 C-4.625 24.625 -4.625 24.625 -8 24 C-8.33 22.68 -8.66 21.36 -9 20 C-8.34 20 -7.68 20 -7 20 C-6.67 20.66 -6.34 21.32 -6 22 C-3.47266765 22.65555119 -3.47266765 22.65555119 -1 23 C-1 19.7 -1 16.4 -1 13 C-3.43717258 13.27034634 -3.43717258 13.27034634 -6 14 C-6.66 14.99 -7.32 15.98 -8 17 C-8 14.36 -8 11.72 -8 9 C-7.01 9.33 -6.02 9.66 -5 10 C-3.66893378 10.34227417 -2.33599921 10.67751743 -1 11 C-1 10.34 -1 9.68 -1 9 C-2.65 8.67 -4.3 8.34 -6 8 C-6 7.67 -6 7.34 -6 7 C-4.35 7 -2.7 7 -1 7 C-0.67 4.69 -0.34 2.38 0 0 Z " fill="#363441" transform="translate(300,95)"/>
<path d="M0 0 C0.99 0.33 1.98 0.66 3 1 C2.814375 1.886875 2.62875 2.77375 2.4375 3.6875 C2.01957516 6.85178811 2.19222258 8.94839642 3 12 C2.01 11.67 1.02 11.34 0 11 C-1.155 11.165 -2.31 11.33 -3.5 11.5 C-7 12 -7 12 -10 11 C-9.67 10.01 -9.34 9.02 -9 8 C-8.67 8 -8.34 8 -8 8 C-8.66 6.35 -9.32 4.7 -10 3 C-9.01 2.34 -8.02 1.68 -7 1 C-7 1.99 -7 2.98 -7 4 C-6.34 3.67 -5.68 3.34 -5 3 C-5 3.99 -5 4.98 -5 6 C-1.27385847 4.88145414 -1.27385847 4.88145414 1 2 C0.34 1.67 -0.32 1.34 -1 1 C-0.67 0.67 -0.34 0.34 0 0 Z " fill="#2E2C3C" transform="translate(275,113)"/>
<path d="M0 0 C0.66 0.66 1.32 1.32 2 2 C1.34 2 0.68 2 0 2 C0 3.65 0 5.3 0 7 C3.96 7 7.92 7 12 7 C13 9 13 9 12.6875 11.0625 C12 13 12 13 10 14 C7.3276379 14.13415472 4.67749512 14.04318541 2 14 C-0.44697666 9.63799813 -1.50269348 5.97306516 -2 1 C-1.34 0.67 -0.68 0.34 0 0 Z " fill="#282735" transform="translate(166,99)"/>
<path d="M0 0 C0.268125 1.00675781 0.53625 2.01351562 0.8125 3.05078125 C1.91360315 6.90173444 3.39782732 10.51451913 5 14.1875 C5.7734375 15.97220703 5.7734375 15.97220703 6.5625 17.79296875 C7.38668366 19.63170457 8.24313622 21.45827979 9.1875 23.23828125 C10 25 10 25 10 28 C9.34 28 8.68 28 8 28 C8.515625 28.763125 9.03125 29.52625 9.5625 30.3125 C10.036875 31.199375 10.51125 32.08625 11 33 C10.67 33.99 10.34 34.98 10 36 C7.86466828 33.40046573 6.43540896 31.37441946 6 28 C6.33 27.01 6.66 26.02 7 25 C6.31818674 23.06706176 6.31818674 23.06706176 5.1875 21.125 C3.08442422 17.17266792 1.4167728 13.25031839 0 9 C-0.66 9 -1.32 9 -2 9 C-2.66 6.69 -3.32 4.38 -4 2 C-1 0 -1 0 0 0 Z " fill="#E2B886" transform="translate(125,84)"/>
<path d="M0 0 C3.3 0 6.6 0 10 0 C10 0.66 10 1.32 10 2 C10.66 2 11.32 2 12 2 C12 2.66 12 3.32 12 4 C12.66 4 13.32 4 14 4 C14 4.99 14 5.98 14 7 C13.01 7.33 12.02 7.66 11 8 C10.4225 7.505 9.845 7.01 9.25 6.5 C6.92730313 4.61468259 6.92730313 4.61468259 3.25 5.3125 C2.1775 5.539375 1.105 5.76625 0 6 C0 5.34 0 4.68 0 4 C-0.66 4 -1.32 4 -2 4 C-1.67 5.32 -1.34 6.64 -1 8 C-1.99 7.34 -2.98 6.68 -4 6 C-3.67 5.01 -3.34 4.02 -3 3 C-2.34 3 -1.68 3 -1 3 C-0.67 2.01 -0.34 1.02 0 0 Z " fill="#201E2D" transform="translate(216,95)"/>
<path d="M0 0 C0.33 0 0.66 0 1 0 C1.495 14.355 1.495 14.355 2 29 C-0.31 29.66 -2.62 30.32 -5 31 C-6.50571746 28.87885041 -8.00468679 26.75346385 -9.5 24.625 C-9.92925781 24.02171875 -10.35851562 23.4184375 -10.80078125 22.796875 C-14 18.2265625 -14 18.2265625 -14 16 C-14.66 16 -15.32 16 -16 16 C-16.66 15.01 -17.32 14.02 -18 13 C-17.67 12.01 -17.34 11.02 -17 10 C-15.77043961 11.68721314 -14.54137349 13.37478649 -13.3125 15.0625 C-12.21808594 16.55910156 -12.21808594 16.55910156 -11.1015625 18.0859375 C-9.41393243 20.42603421 -7.79416855 22.79228246 -6.1875 25.1875 C-5.465625 26.115625 -4.74375 27.04375 -4 28 C-3.01 28 -2.02 28 -1 28 C-0.67 18.76 -0.34 9.52 0 0 Z " fill="#36343F" transform="translate(206,95)"/>
<path d="M0 0 C3.77450884 -0.35947703 5.84678896 -0.07226936 9.3125 1.5625 C12 4 12 4 12.875 7.75 C12.91625 8.8225 12.9575 9.895 13 11 C8.41363529 10.56732408 6.15438158 10.29776257 3 7 C-0.12414314 6.68758569 -1.99825776 6.99941925 -5 8 C-5.73323796 10.01508358 -5.73323796 10.01508358 -6 12 C-6.33 11.01 -6.66 10.02 -7 9 C-5.16822965 6.97196854 -3.58467552 5.29233776 -1.125 4.0625 C2.0897376 3.96794889 4.25744342 5.44172922 7 7 C7 7.66 7 8.32 7 9 C8.32 9 9.64 9 11 9 C9.78969026 6.42672567 9.78969026 6.42672567 8 4 C6.68 4 5.36 4 4 4 C4 3.34 4 2.68 4 2 C2.68 2.33 1.36 2.66 0 3 C0 2.01 0 1.02 0 0 Z " fill="#34323E" transform="translate(248,95)"/>
<path d="M0 0 C0.66 0 1.32 0 2 0 C2.33 0.33 2.66 0.66 3 1 C3.66 0.67 4.32 0.34 5 0 C5.33 2.97 5.66 5.94 6 9 C8.31 9.33 10.62 9.66 13 10 C12.01 11.485 12.01 11.485 11 13 C4.52540541 12.38918919 4.52540541 12.38918919 2.3125 10.75 C0.66186716 8.54915621 0.50997592 7.03766774 0.3125 4.3125 C0.24675781 3.50425781 0.18101562 2.69601563 0.11328125 1.86328125 C0.07589844 1.24839844 0.03851563 0.63351563 0 0 Z " fill="#1E1B2E" transform="translate(286,110)"/>
<path d="M0 0 C0 0.66 0 1.32 0 2 C-0.66 2 -1.32 2 -2 2 C-1.01 3.485 -1.01 3.485 0 5 C0.556875 4.855625 1.11375 4.71125 1.6875 4.5625 C4.11384195 3.97230872 6.54906345 3.476571 9 3 C9.33 3.99 9.66 4.98 10 6 C8.36587557 7.70840281 7.13093906 8.93453047 5 10 C3.00039988 10.039992 0.99952758 10.04346799 -1 10 C-1 9.34 -1 8.68 -1 8 C-1.66 7.67 -2.32 7.34 -3 7 C-3.72693904 5.02111039 -4.39816251 3.02045442 -5 1 C-3 0 -3 0 0 0 Z " fill="#32303E" transform="translate(343,113)"/>
<path d="M0 0 C1.77305664 0.25587405 3.54344608 0.53027739 5.3125 0.8125 C6.79169922 1.03873047 6.79169922 1.03873047 8.30078125 1.26953125 C11.16337057 2.04421172 12.27782217 2.62120588 14 5 C14.39015561 8.12124489 14.55877549 10.09975061 12.875 12.8125 C10.33323785 14.42228269 7.9601892 14.67109009 5 15 C5.99 14.34 6.98 13.68 8 13 C9.35251497 11.68612831 10.68945377 10.35573748 12 9 C11.67 8.34 11.34 7.68 11 7 C10.67 7.66 10.34 8.32 10 9 C9.67 8.01 9.34 7.02 9 6 C8.34 5.67 7.68 5.34 7 5 C6.67 4.67 6.34 4.34 6 4 C4.68 4 3.36 4 2 4 C1.34 2.68 0.68 1.36 0 0 Z " fill="#2F2D3B" transform="translate(377,109)"/>
<path d="M0 0 C1.98 0 3.96 0 6 0 C7.9375 2.375 7.9375 2.375 9 5 C8.67 5.66 8.34 6.32 8 7 C7.01 6.67 6.02 6.34 5 6 C5.66 6.66 6.32 7.32 7 8 C6.67 8.99 6.34 9.98 6 11 C5.01 10.01 4.02 9.02 3 8 C2.67 10.97 2.34 13.94 2 17 C1.67 17 1.34 17 1 17 C0.67 11.39 0.34 5.78 0 0 Z " fill="#1D1C2A" transform="translate(181,95)"/>
<path d="M0 0 C0.66 0.33 1.32 0.66 2 1 C2 2.32 2 3.64 2 5 C2.99 5.33 3.98 5.66 5 6 C4.01 6.495 4.01 6.495 3 7 C2.34 6.67 1.68 6.34 1 6 C1 5.34 1 4.68 1 4 C-0.32 4.33 -1.64 4.66 -3 5 C-1.33400078 7.79751404 -0.46797784 8.85642358 2.69921875 9.828125 C3.68535156 9.96734375 4.67148438 10.1065625 5.6875 10.25 C6.68136719 10.39953125 7.67523438 10.5490625 8.69921875 10.703125 C9.45847656 10.80109375 10.21773437 10.8990625 11 11 C7.50994351 13.32670433 6.88120368 13.15328615 2.9375 12.375 C1.62072266 12.13910156 1.62072266 12.13910156 0.27734375 11.8984375 C-2 11 -2 11 -3.18359375 8.9765625 C-3.45300781 8.32429688 -3.72242188 7.67203125 -4 7 C-4.66 6.67 -5.32 6.34 -6 6 C-5.67 4.68 -5.34 3.36 -5 2 C-3.35 2 -1.7 2 0 2 C0 1.34 0 0.68 0 0 Z " fill="#36353F" transform="translate(214,112)"/>
<path d="M0 0 C0.639375 0.33 1.27875 0.66 1.9375 1 C4.9079057 2.4401967 4.61120628 2.12959791 8 1 C8.433125 1.9075 8.86625 2.815 9.3125 3.75 C10.84980836 6.92774872 10.84980836 6.92774872 12.6875 9.25 C14 11 14 11 14 13 C10.33620697 11.42491141 7.70148695 9.15806427 4.75 6.5 C3.85796875 5.7059375 2.9659375 4.911875 2.046875 4.09375 C0 2 0 2 0 0 Z " fill="#E2A976" transform="translate(130,119)"/>
<path d="M0 0 C3 1 3 1 5 2 C7.3329866 2.04022391 9.66706666 2.04320247 12 2 C10.02 4.97 10.02 4.97 8 8 C1.25 7.125 1.25 7.125 -1 6 C-0.67 4.02 -0.34 2.04 0 0 Z " fill="#23212E" transform="translate(313,117)"/>
<path d="M0 0 C0.33 0.99 0.66 1.98 1 3 C1.66 3 2.32 3 3 3 C3 6.96 3 10.92 3 15 C2.01 15.33 1.02 15.66 0 16 C0 15.01 0 14.02 0 13 C-0.99 13.33 -1.98 13.66 -3 14 C-2.67 12.35 -2.34 10.7 -2 9 C-2.66 9 -3.32 9 -4 9 C-3.34 7.68 -2.68 6.36 -2 5 C-1.34 5 -0.68 5 0 5 C-0.33 4.01 -0.66 3.02 -1 2 C-0.67 1.34 -0.34 0.68 0 0 Z " fill="#1F1D2A" transform="translate(329,109)"/>
<path d="M0 0 C2.02350324 3.03525486 2.32124018 4.19426202 2.625 7.6875 C2.69976562 8.49574219 2.77453125 9.30398437 2.8515625 10.13671875 C2.90054687 10.75160156 2.94953125 11.36648437 3 12 C4.41433206 12.2236337 5.83167618 12.42826476 7.25 12.625 C8.03890625 12.74101563 8.8278125 12.85703125 9.640625 12.9765625 C12.32152459 13.00319395 13.72694089 12.36592084 16 11 C16.33 12.65 16.66 14.3 17 16 C16.01 15.67 15.02 15.34 14 15 C12.88625 15.20625 11.7725 15.4125 10.625 15.625 C7 16 7 16 4.25 15.125 C0.9817627 12.03833144 -0.2525549 8.40077368 -1 4 C-0.5703125 1.71484375 -0.5703125 1.71484375 0 0 Z " fill="#33313F" transform="translate(285,109)"/>
<path d="M0 0 C0.66 0.99 1.32 1.98 2 3 C2.99 2.67 3.98 2.34 5 2 C5.66 2.66 6.32 3.32 7 4 C6.67 4.33 6.34 4.66 6 5 C6.66 5.33 7.32 5.66 8 6 C8.33 5.34 8.66 4.68 9 4 C10.5 5.3125 10.5 5.3125 12 7 C12 7.99 12 8.98 12 10 C10.68 10 9.36 10 8 10 C7 9 6 8 5 7 C1.00637332 5.63375929 -1.24928186 6.17822262 -5 8 C-4.67 7.01 -4.34 6.02 -4 5 C-3.01 4.67 -2.02 4.34 -1 4 C-0.26676204 1.98491642 -0.26676204 1.98491642 0 0 Z " fill="#1B1928" transform="translate(247,94)"/>
<path d="M0 0 C1.65 0 3.3 0 5 0 C4.67 0.66 4.34 1.32 4 2 C3.01 2 2.02 2 1 2 C0.814375 3.2065625 0.814375 3.2065625 0.625 4.4375 C0.41875 5.283125 0.2125 6.12875 0 7 C-0.99 7.495 -0.99 7.495 -2 8 C-0.68 8.99 0.64 9.98 2 11 C1.34 12.98 0.68 14.96 0 17 C0.66 17.33 1.32 17.66 2 18 C1.67 18.66 1.34 19.32 1 20 C0.34 20 -0.32 20 -1 20 C-1.1953125 17.94921875 -1.390625 15.8984375 -1.5859375 13.84765625 C-1.79089844 12.93306641 -1.79089844 12.93306641 -2 12 C-2.66 11.67 -3.32 11.34 -4 11 C-4 9.35 -4 7.7 -4 6 C-3.01 5.67 -2.02 5.34 -1 5 C-0.67 3.35 -0.34 1.7 0 0 Z " fill="#32303C" transform="translate(359,96)"/>
<path d="M0 0 C0.66 0.33 1.32 0.66 2 1 C1.649375 1.556875 1.29875 2.11375 0.9375 2.6875 C-0.21845993 5.53886783 0.19032562 7.08517222 1 10 C0.67 9.01 0.34 8.02 0 7 C-0.66 7 -1.32 7 -2 7 C-1.67 7.99 -1.34 8.98 -1 10 C-2.4375 12.1875 -2.4375 12.1875 -4 14 C-4.103125 13.38125 -4.20625 12.7625 -4.3125 12.125 C-4.87525373 9.63473516 -4.87525373 9.63473516 -8 8 C-7.34 7.34 -6.68 6.68 -6 6 C-5.71125 5.34 -5.4225 4.68 -5.125 4 C-3.74836769 1.55265366 -2.62864939 0.90359823 0 0 Z " fill="#1D192E" transform="translate(364,96)"/>
<path d="M0 0 C0.33 0.99 0.66 1.98 1 3 C1.66 3.33 2.32 3.66 3 4 C1.79625154 7.61124537 0.25546915 8.45200414 -3.03125 10.203125 C-6.17293262 11.47475844 -8.66964562 11.43171261 -12 11 C-14.9375 9.625 -14.9375 9.625 -17 8 C-17 7.34 -17 6.68 -17 6 C-16.13375 6.33 -15.2675 6.66 -14.375 7 C-9.68655296 8.38916949 -5.67580671 8.43870976 -1 7 C-0.67 4.69 -0.34 2.38 0 0 Z " fill="#393643" transform="translate(353,114)"/>
<path d="M0 0 C0.2475 0.5775 0.495 1.155 0.75 1.75 C2.23824784 4.42884611 3.57263634 6.11205049 6 8 C9.167832 8.33448259 9.167832 8.33448259 12 8 C12.33 6.68 12.66 5.36 13 4 C12.01 4 11.02 4 10 4 C10.33 3.34 10.66 2.68 11 2 C12.32 2.66 13.64 3.32 15 4 C13.125 8.875 13.125 8.875 12 10 C10.0390625 10.203125 10.0390625 10.203125 7.625 10.25 C6.83351562 10.27578125 6.04203125 10.3015625 5.2265625 10.328125 C2.4942799 9.92547283 1.67719951 9.14598198 0 7 C-1.13055309 3.98519175 -1.05609899 3.16829698 0 0 Z " fill="#393646" transform="translate(241,109)"/>
<path d="M0 0 C-0.33 1.32 -0.66 2.64 -1 4 C-1.99 3.67 -2.98 3.34 -4 3 C-7.410734 4.13691133 -7.63146566 4.5160113 -9.1875 7.5625 C-11.25047516 11.90023865 -11.33923805 15.25066732 -11 20 C-11.66 19.67 -12.32 19.34 -13 19 C-13.30631798 13.17995836 -12.99815508 9.19680214 -10 4 C-6.30632183 0.935033 -4.85041092 0 0 0 Z " fill="#33313F" transform="translate(247,95)"/>
<path d="M0 0 C0.99 0 1.98 0 3 0 C3.33 0.66 3.66 1.32 4 2 C4.66 2.33 5.32 2.66 6 3 C6 4.32 6 5.64 6 7 C9.465 6.505 9.465 6.505 13 6 C13 6.66 13 7.32 13 8 C8.69856646 9.43381118 5.20200866 8.57764946 1 7 C-1.5625 4.375 -1.5625 4.375 -3 2 C-2.01 2 -1.02 2 0 2 C0 1.34 0 0.68 0 0 Z " fill="#191727" transform="translate(373,106)"/>
<path d="M0 0 C1.485 0.99 1.485 0.99 3 2 C5.21729717 2.2784628 5.21729717 2.2784628 7.5625 2.1875 C8.34753906 2.18105469 9.13257813 2.17460938 9.94140625 2.16796875 C12.06354672 2.12364089 12.06354672 2.12364089 14 1 C14.66 2.32 15.32 3.64 16 5 C11.8794254 6.99785435 8.54805635 7.17835515 4 7 C4.33 6.34 4.66 5.68 5 5 C2.525 4.01 2.525 4.01 0 3 C0 2.01 0 1.02 0 0 Z " fill="#1A172C" transform="translate(241,116)"/>
<path d="M0 0 C2.4375 1.125 2.4375 1.125 5 3 C5.8125 6.1875 5.8125 6.1875 6 9 C3.69 9 1.38 9 -1 9 C-1.33 8.34 -1.66 7.68 -2 7 C-4.32156597 6.59270772 -6.6568787 6.25561323 -9 6 C-8.34 5.34 -7.68 4.68 -7 4 C-3.19090105 4.32417863 -1.21627837 4.85581442 2 7 C2.66 7 3.32 7 4 7 C4 6.01 4 5.02 4 4 C3.34 4 2.68 4 2 4 C2 3.34 2 2.68 2 2 C1.34 2 0.68 2 0 2 C0 1.34 0 0.68 0 0 Z " fill="#363541" transform="translate(226,95)"/>
<path d="M0 0 C1.98 0.495 1.98 0.495 4 1 C4 5.95 4 10.9 4 16 C3.67 16 3.34 16 3 16 C2.67 13.03 2.34 10.06 2 7 C1.34 8.32 0.68 9.64 0 11 C-1.28571429 3.57142857 -1.28571429 3.57142857 0 0 Z " fill="#1E1B2C" transform="translate(302,95)"/>
<path d="M0 0 C0.99 0.66 1.98 1.32 3 2 C1.75023244 5.65316671 1.32901247 6.78065836 -2 9 C-2.99 9 -3.98 9 -5 9 C-5.33 9.66 -5.66 10.32 -6 11 C-6.66 10.01 -7.32 9.02 -8 8 C-7.01 8 -6.02 8 -5 8 C-5 7.34 -5 6.68 -5 6 C-4.01 5.34 -3.02 4.68 -2 4 C-2.33 3.01 -2.66 2.02 -3 1 C-2.34 1 -1.68 1 -1 1 C-0.67 1.33 -0.34 1.66 0 2 C0 1.34 0 0.68 0 0 Z " fill="#1D1A2E" transform="translate(387,114)"/>
<path d="M0 0 C0.66 0 1.32 0 2 0 C2 0.99 2 1.98 2 3 C2.66 3 3.32 3 4 3 C3.9375 5.3125 3.9375 5.3125 3 8 C-0.50148842 9.88042897 -3.0080306 11 -7 11 C-7 10.34 -7 9.68 -7 9 C-3.535 8.505 -3.535 8.505 0 8 C-0.2784375 6.2984375 -0.2784375 6.2984375 -0.5625 4.5625 C-0.706875 3.386875 -0.85125 2.21125 -1 1 C-0.67 0.67 -0.34 0.34 0 0 Z " fill="#302E3B" transform="translate(327,122)"/>
<path d="M0 0 C0.99 0.33 1.98 0.66 3 1 C3 1.66 3 2.32 3 3 C2.34 3 1.68 3 1 3 C0.67 7.95 0.34 12.9 0 18 C-0.33 18 -0.66 18 -1 18 C-1.06058594 17.25234375 -1.12117188 16.5046875 -1.18359375 15.734375 C-1.26738281 14.74953125 -1.35117188 13.7646875 -1.4375 12.75 C-1.51871094 11.77546875 -1.59992188 10.8009375 -1.68359375 9.796875 C-1.91819352 7.06527284 -1.91819352 7.06527284 -2.625 4.75 C-2.74875 4.1725 -2.8725 3.595 -3 3 C-1.5625 1.25 -1.5625 1.25 0 0 Z " fill="#E1C4AF" transform="translate(100,84)"/>
<path d="M0 0 C-3.75 2 -3.75 2 -6 2 C-6 2.66 -6 3.32 -6 4 C-6.66 4 -7.32 4 -8 4 C-9.17287572 10.68531992 -9.17287572 10.68531992 -7 17 C-7.99 17 -8.98 17 -10 17 C-11 16 -11 16 -11.1875 12.25 C-11.114244 7.69998845 -10.49788903 4.49788903 -7.1875 1.1875 C-4.60003118 -0.21712593 -2.90193042 -0.24182753 0 0 Z " fill="#35333D" transform="translate(344,102)"/>
<path d="M0 0 C0.99 0.33 1.98 0.66 3 1 C3 2.65 3 4.3 3 6 C1.68 6.33 0.36 6.66 -1 7 C-0.67 6.34 -0.34 5.68 0 5 C-3.63 4.67 -7.26 4.34 -11 4 C-10.67 3.34 -10.34 2.68 -10 2 C-6.7 2 -3.4 2 0 2 C0 1.34 0 0.68 0 0 Z " fill="#262536" transform="translate(177,94)"/>
<path d="M0 0 C1.21236328 0.04060547 1.21236328 0.04060547 2.44921875 0.08203125 C3.06410156 0.11683594 3.67898438 0.15164062 4.3125 0.1875 C4.6425 0.8475 4.9725 1.5075 5.3125 2.1875 C4.6525 2.8475 3.9925 3.5075 3.3125 4.1875 C2.549375 4.0225 1.78625 3.8575 1 3.6875 C-2.23091055 3.08640036 -3.77957926 3.77508135 -6.6875 5.1875 C-7.0175 4.5275 -7.3475 3.8675 -7.6875 3.1875 C-5.26849268 0.20484049 -3.789448 -0.16475861 0 0 Z " fill="#1E1B2C" transform="translate(273.6875,102.8125)"/>
<path d="M0 0 C-0.33 0.66 -0.66 1.32 -1 2 C-1.66 1.67 -2.32 1.34 -3 1 C-3.33 1.66 -3.66 2.32 -4 3 C-2.90603225 4.23190207 -2.90603225 4.23190207 -0.5 4.9375 C2 6 2 6 3 8 C-1.16045249 7.52722131 -3.98632991 7.01367009 -7 4 C-7.75 1.8125 -7.75 1.8125 -8 0 C-2.25 -1.125 -2.25 -1.125 0 0 Z " fill="#34323D" transform="translate(378,117)"/>
<path d="M0 0 C1.66404273 0.71316117 3.32756696 1.42755949 4.98828125 2.1484375 C6.28819202 2.69869099 7.59793357 3.22650844 8.91796875 3.7265625 C12.64369223 5.17236564 15.17200656 6.34401312 17 10 C16.67 10.99 16.34 11.98 16 13 C15.505 11.8553125 15.505 11.8553125 15 10.6875 C12.24122654 6.98039817 9.2898265 6.33535455 5 5 C3.33094605 4.33933281 1.6630584 3.67561748 0 3 C0 2.01 0 1.02 0 0 Z " fill="#3B3A44" transform="translate(216,103)"/>
<path d="M0 0 C4.29 0.33 8.58 0.66 13 1 C12.01 2.485 12.01 2.485 11 4 C6.43771074 4.36792655 2.92757913 4.61838609 -1 2 C-0.67 1.34 -0.34 0.68 0 0 Z " fill="#161622" transform="translate(165,97)"/>
<path d="M0 0 C0.66 0.33 1.32 0.66 2 1 C1.67 1.66 1.34 2.32 1 3 C1.66 3 2.32 3 3 3 C3 4.32 3 5.64 3 7 C1.35 7.66 -0.3 8.32 -2 9 C-2 8.34 -2 7.68 -2 7 C-3.65 7 -5.3 7 -7 7 C-6.6875 5.0625 -6.6875 5.0625 -6 3 C-5.01 2.67 -4.02 2.34 -3 2 C-3 2.66 -3 3.32 -3 4 C-3.33 4.33 -3.66 4.66 -4 5 C-1.03 5.495 -1.03 5.495 2 6 C2 5.34 2 4.68 2 4 C1.01 3.67 0.02 3.34 -1 3 C-0.67 2.01 -0.34 1.02 0 0 Z " fill="#312F3C" transform="translate(346,104)"/>
<path d="M0 0 C0.33 1.32 0.66 2.64 1 4 C0.01 4.33 -0.98 4.66 -2 5 C-3.68538601 6.99665314 -3.68538601 6.99665314 -5 9 C-5.33 8.34 -5.66 7.68 -6 7 C-6.66 7 -7.32 7 -8 7 C-7.9375 5.1875 -7.9375 5.1875 -7 3 C-3.4375 1.25 -3.4375 1.25 0 0 Z " fill="#2F2D3A" transform="translate(379,101)"/>
<path d="M0 0 C1.65 0.33 3.3 0.66 5 1 C5 2.98 5 4.96 5 7 C4.01 7 3.02 7 2 7 C1.67 7.66 1.34 8.32 1 9 C-1.125 3.375 -1.125 3.375 0 0 Z " fill="#1D1A2C" transform="translate(277,116)"/>
<path d="M0 0 C1.15681413 3.96621988 1.67370401 7.88867059 2 12 C1.01 13.485 1.01 13.485 0 15 C-2 13 -2 13 -2.25 9.75 C-2.00879145 6.1318718 -1.31162801 3.36104678 0 0 Z " fill="#272339" transform="translate(304,100)"/>
<path d="M0 0 C1 3 1 3 1 5 C-3.455 6.485 -3.455 6.485 -8 8 C-8 6.33333333 -8 4.66666667 -8 3 C-6.576875 3.0928125 -6.576875 3.0928125 -5.125 3.1875 C-3.578125 3.0946875 -3.578125 3.0946875 -2 3 C-1.34 2.01 -0.68 1.02 0 0 Z " fill="#1B182B" transform="translate(326,125)"/>
<path d="M0 0 C4.87305969 4.29975855 7.8200442 9.37224317 11 15 C6.97449681 13.6581656 6.11714364 11.5772427 4 8 C4 7.34 4 6.68 4 6 C3.34 6 2.68 6 2 6 C0 3 0 3 0 0 Z " fill="#3A3848" transform="translate(188,105)"/>
<path d="M0 0 C0.99 0.99 1.98 1.98 3 3 C2.67 3.66 2.34 4.32 2 5 C1.01 5 0.02 5 -1 5 C-0.525625 5.78375 -0.05125 6.5675 0.4375 7.375 C1.33898023 8.88948678 2.21179485 10.4235897 3 12 C0.5625 11.3125 0.5625 11.3125 -2 10 C-3 7.6875 -3 7.6875 -3 5 C-1.5625 2.1875 -1.5625 2.1875 0 0 Z " fill="#DB7B44" transform="translate(114,98)"/>
<path d="M0 0 C0.33 0.99 0.66 1.98 1 3 C2.84971696 4.05021103 2.84971696 4.05021103 5 5 C7.25 6.5 7.25 6.5 9 8 C9 8.66 9 9.32 9 10 C8.484375 9.731875 7.96875 9.46375 7.4375 9.1875 C4.33598585 7.67650593 1.17737194 6.34427274 -2 5 C-2 4.01 -2 3.02 -2 2 C-1.34 2 -0.68 2 0 2 C0 1.34 0 0.68 0 0 Z " fill="#D29A75" transform="translate(103,85)"/>
<path d="M0 0 C3.80635497 3.20760251 7.54563567 6.40746109 11 10 C10.01 10.33 9.02 10.66 8 11 C2.19794344 5.35475578 2.19794344 5.35475578 0 2 C0 1.34 0 0.68 0 0 Z " fill="#CE9C7A" transform="translate(119,108)"/>
<path d="M0 0 C3.057952 1.73559438 5.63379989 3.38472619 8 6 C6.25 10.875 6.25 10.875 4 12 C4.0825 11.0925 4.165 10.185 4.25 9.25 C3.94651946 5.30475293 2.89074879 4.52940519 0 2 C0 1.34 0 0.68 0 0 Z " fill="#C29271" transform="translate(112,95)"/>
<path d="M0 0 C6.27 0 12.54 0 19 0 C19 0.33 19 0.66 19 1 C17.86820313 1.03738281 16.73640625 1.07476562 15.5703125 1.11328125 C14.08850795 1.17893082 12.60673861 1.24537851 11.125 1.3125 C10.00544922 1.34633789 10.00544922 1.34633789 8.86328125 1.38085938 C6.900396 1.47811945 4.94671678 1.73042294 3 2 C2.01 3.485 2.01 3.485 1 5 C0.67 3.35 0.34 1.7 0 0 Z " fill="#D9A264" transform="translate(125,86)"/>
<path d="M0 0 C3.79726648 3.39755422 5.88400359 5.97801617 7 11 C6.67 11.66 6.34 12.32 6 13 C5.34 13 4.68 13 4 13 C4.33 11.35 4.66 9.7 5 8 C4.34 8 3.68 8 3 8 C0.95830515 5.09451118 0 3.59857954 0 0 Z " fill="#353348" transform="translate(193,103)"/>
<path d="M0 0 C2.88437779 1.29299694 4.87219421 2.65941363 7 5 C6.01 5.495 6.01 5.495 5 6 C3 5.125 3 5.125 1 4 C0.34 3.67 -0.32 3.34 -1 3 C-0.67 3.99 -0.34 4.98 0 6 C-0.66 6.66 -1.32 7.32 -2 8 C-2 6.02 -2 4.04 -2 2 C-1.34 2 -0.68 2 0 2 C0 1.34 0 0.68 0 0 Z " fill="#1C1A24" transform="translate(293,101)"/>
<path d="M0 0 C-1.63412443 1.70840281 -2.86906094 2.93453047 -5 4 C-6.99960012 4.039992 -9.00047242 4.04346799 -11 4 C-10.67 3.01 -10.34 2.02 -10 1 C-3.84210526 -1.28070175 -3.84210526 -1.28070175 0 0 Z " fill="#1A1828" transform="translate(353,119)"/>
<path d="M0 0 C0.33 0 0.66 0 1 0 C2.125 6.625 2.125 6.625 1 10 C0.34 10 -0.32 10 -1 10 C-1 9.01 -1 8.02 -1 7 C-1.99 6.67 -2.98 6.34 -4 6 C-4 5.01 -4 4.02 -4 3 C-3.01 3 -2.02 3 -1 3 C-0.67 2.01 -0.34 1.02 0 0 Z " fill="#1B172E" transform="translate(363,108)"/>
<path d="M0 0 C0.33 3.3 0.66 6.6 1 10 C0.01 9.67 -0.98 9.34 -2 9 C-3.1875 5.4375 -3.1875 5.4375 -4 2 C-1 0 -1 0 0 0 Z " fill="#DEC09C" transform="translate(125,84)"/>
<path d="M0 0 C0.33 0.66 0.66 1.32 1 2 C3.34907875 2.68931344 3.34907875 2.68931344 6.0625 3.125 C6.98160156 3.29257813 7.90070313 3.46015625 8.84765625 3.6328125 C9.91306641 3.81457031 9.91306641 3.81457031 11 4 C11 4.33 11 4.66 11 5 C6.50985524 6.07763474 4.66989054 6.37757467 0.5625 4.0625 C-0.283125 3.381875 -1.12875 2.70125 -2 2 C-1.34 1.34 -0.68 0.68 0 0 Z " fill="#272439" transform="translate(240,117)"/>
<path d="M0 0 C0.66 0.33 1.32 0.66 2 1 C1.9129995 2.62600941 1.8048219 4.25089678 1.6875 5.875 C1.62949219 6.77992187 1.57148438 7.68484375 1.51171875 8.6171875 C1 11 1 11 -2 13 C-1.85915204 11.20793453 -1.71216299 9.41635083 -1.5625 7.625 C-1.48128906 6.62726563 -1.40007812 5.62953125 -1.31640625 4.6015625 C-1 2 -1 2 0 0 Z " fill="#363543" transform="translate(260,107)"/>
<path d="M0 0 C1.32 1.65 2.64 3.3 4 5 C2.02 5.66 0.04 6.32 -2 7 C-2.99 6.01 -3.98 5.02 -5 4 C-4.67 3.34 -4.34 2.68 -4 2 C-3.01 2.33 -2.02 2.66 -1 3 C-0.67 2.01 -0.34 1.02 0 0 Z " fill="#2F2E3B" transform="translate(325,99)"/>
<path d="M0 0 C1.485 0.99 1.485 0.99 3 2 C3 2.99 3 3.98 3 5 C3.66 5 4.32 5 5 5 C4.67 6.65 4.34 8.3 4 10 C1.2027092 7.93243723 0.97307727 6.85559629 0.3125 3.3125 C0.209375 2.219375 0.10625 1.12625 0 0 Z " fill="#1A1729" transform="translate(193,106)"/>
<path d="M0 0 C4.75 0.875 4.75 0.875 7 2 C6.67 2.99 6.34 3.98 6 5 C3.69 4.34 1.38 3.68 -1 3 C-0.67 2.01 -0.34 1.02 0 0 Z " fill="#1F1C2C" transform="translate(363,119)"/>
<path d="M0 0 C0.99 1.32 1.98 2.64 3 4 C2.01 4.33 1.02 4.66 0 5 C0 7.31 0 9.62 0 12 C-0.33 12 -0.66 12 -1 12 C-1.33 8.7 -1.66 5.4 -2 2 C-1.34 2 -0.68 2 0 2 C0 1.34 0 0.68 0 0 Z " fill="#1C1B2C" transform="translate(165,107)"/>
<path d="M0 0 C3.14624993 -0.26218749 4.61837017 -0.24754367 7.3125 1.5 C8.1478125 2.2425 8.1478125 2.2425 9 3 C6.1875 3.6875 6.1875 3.6875 3 4 C1.125 2.625 1.125 2.625 0 1 C0 0.67 0 0.34 0 0 Z " fill="#1E1C29" transform="translate(372,118)"/>
<path d="M0 0 C3.36179774 1.44077046 5.59156268 3.24750021 8 6 C8 6.66 8 7.32 8 8 C4.63820226 6.55922954 2.40843732 4.75249979 0 2 C0 1.34 0 0.68 0 0 Z " fill="#D7966E" transform="translate(130,119)"/>
<path d="M0 0 C0.66 0 1.32 0 2 0 C2.125 6.75 2.125 6.75 1 9 C0.01 8.67 -0.98 8.34 -2 8 C-1.505 6.2984375 -1.505 6.2984375 -1 4.5625 C0.04504273 1.45623361 0.04504273 1.45623361 0 0 Z " fill="#262436" transform="translate(257,111)"/>
<path d="M0 0 C0.99 0.33 1.98 0.66 3 1 C3.33 1.99 3.66 2.98 4 4 C3.01 4.99 2.02 5.98 1 7 C0.67 6.34 0.34 5.68 0 5 C-0.99 4.67 -1.98 4.34 -3 4 C-2.01 2.68 -1.02 1.36 0 0 Z " fill="#1C192C" transform="translate(326,103)"/>
<path d="M0 0 C1.65 0 3.3 0 5 0 C4.67 0.66 4.34 1.32 4 2 C3.01 2 2.02 2 1 2 C0.67 3.65 0.34 5.3 0 7 C-0.99 6.34 -1.98 5.68 -3 5 C-2.34 5 -1.68 5 -1 5 C-0.67 3.35 -0.34 1.7 0 0 Z " fill="#2B2936" transform="translate(359,96)"/>
<path d="M0 0 C0.66 0 1.32 0 2 0 C6 4 6 4 6 7 C3.00675737 5.9024777 2.15389099 5.32317108 0.75 2.375 C0.5025 1.59125 0.255 0.8075 0 0 Z " fill="#1C192C" transform="translate(197,116)"/>
<path d="M0 0 C2.475 0.495 2.475 0.495 5 1 C5.625 2.875 5.625 2.875 6 5 C5.34 5.66 4.68 6.32 4 7 C1.875 6.625 1.875 6.625 0 6 C0.99 5.01 1.98 4.02 3 3 C2.01 2.01 1.02 1.02 0 0 Z " fill="#353343" transform="translate(221,112)"/>
<path d="M0 0 C0.185625 0.8353125 0.185625 0.8353125 0.375 1.6875 C1.05976855 4.22114364 1.99133763 6.57921032 3 9 C2.01 9.495 2.01 9.495 1 10 C-0.625 7.25 -0.625 7.25 -2 4 C-1.1875 1.625 -1.1875 1.625 0 0 Z " fill="#D5B082" transform="translate(133,110)"/>
<path d="M0 0 C0 2.64 0 5.28 0 8 C-0.99 7.67 -1.98 7.34 -3 7 C-3 5.02 -3 3.04 -3 1 C-1 0 -1 0 0 0 Z " fill="#1F1D34" transform="translate(163,101)"/>
<path d="M0 0 C0.33 0 0.66 0 1 0 C1.33 2.64 1.66 5.28 2 8 C0.35 8.33 -1.3 8.66 -3 9 C-3 8.34 -3 7.68 -3 7 C-2.01 7 -1.02 7 0 7 C0 4.69 0 2.38 0 0 Z " fill="#313139" transform="translate(282,116)"/>
<path d="M0 0 C3.45925163 1.2491742 6.14693203 2.67527795 9 5 C8.67 5.66 8.34 6.32 8 7 C6.66144944 6.21718695 5.32926356 5.42348123 4 4.625 C3.2575 4.18414062 2.515 3.74328125 1.75 3.2890625 C1.1725 2.86367187 0.595 2.43828125 0 2 C0 1.34 0 0.68 0 0 Z " fill="#D97B3A" transform="translate(103,90)"/>
<path d="M0 0 C0.33 0 0.66 0 1 0 C2.25 7.625 2.25 7.625 0 11 C-0.66 11 -1.32 11 -2 11 C-1.34 7.37 -0.68 3.74 0 0 Z " fill="#D0AC86" transform="translate(147,122)"/>
<path d="M0 0 C0.99 0.495 0.99 0.495 2 1 C2 1.66 2 2.32 2 3 C2.99 3 3.98 3 5 3 C5 4.32 5 5.64 5 7 C3.0625 6.3125 3.0625 6.3125 1 5 C0.25 2.375 0.25 2.375 0 0 Z " fill="#363444" transform="translate(364,115)"/>
<path d="M0 0 C1.65 0 3.3 0 5 0 C5 0.66 5 1.32 5 2 C5.99 2.33 6.98 2.66 8 3 C6 4 6 4 2 4 C1.34 2.68 0.68 1.36 0 0 Z " fill="#1A1825" transform="translate(210,116)"/>
<path d="M0 0 C1 4 1 4 1 4 Z " fill="#2D2D2D" transform="translate(322,111)"/>
<path d="" fill="#403640" transform="translate(0,0)"/>
<path d="M0 0 C0.99 0.495 0.99 0.495 2 1 C1.01 1.495 1.01 1.495 0 2 C0 1.34 0 0.68 0 0 Z " fill="#1B1B29" transform="translate(367,115)"/>
<path d="M0 0 C0.66 0 1.32 0 2 0 C1.67 0.66 1.34 1.32 1 2 C0.67 1.34 0.34 0.68 0 0 Z " fill="#242429" transform="translate(343,116)"/>
<path d="M0 0 C0.66 0.66 1.32 1.32 2 2 C1.34 2 0.68 2 0 2 C0 1.34 0 0.68 0 0 Z " fill="#222222" transform="translate(295,115)"/>
<path d="M0 0 C0.66 0.66 1.32 1.32 2 2 C1.34 2 0.68 2 0 2 C0 1.34 0 0.68 0 0 Z " fill="#302430" transform="translate(244,112)"/>
<path d="M0 0 C3 1 3 1 3 1 Z " fill="#0E0E0E" transform="translate(340,100)"/>
<path d="" fill="#191919" transform="translate(0,0)"/>
<path d="M0 0 C2 1 2 1 2 1 Z " fill="#333333" transform="translate(274,125)"/>
<path d="" fill="#353535" transform="translate(0,0)"/>
<path d="" fill="#2D2D49" transform="translate(0,0)"/>
<path d="M0 0 C2 1 2 1 2 1 Z " fill="#38383E" transform="translate(379,117)"/>
<path d="" fill="#37373F" transform="translate(0,0)"/>
<path d="M0 0 C2 1 2 1 2 1 Z " fill="#202020" transform="translate(319,116)"/>
<path d="M0 0 C2 1 2 1 2 1 Z " fill="#393939" transform="translate(219,116)"/>
<path d="M0 0 C2 1 2 1 2 1 Z " fill="#3A333A" transform="translate(355,115)"/>
<path d="M0 0 C2 1 2 1 2 1 Z " fill="#000000" transform="translate(346,115)"/>
<path d="" fill="#2A2A2A" transform="translate(0,0)"/>
<path d="M0 0 C2 1 2 1 2 1 Z " fill="#403846" transform="translate(250,115)"/>
<path d="" fill="#353535" transform="translate(0,0)"/>
<path d="" fill="#363636" transform="translate(0,0)"/>
<path d="M0 0 C2 1 2 1 2 1 Z " fill="#1C1C1C" transform="translate(294,110)"/>
<path d="" fill="#464646" transform="translate(0,0)"/>
<path d="M0 0 C2 1 2 1 2 1 Z " fill="#2C2C3B" transform="translate(272,108)"/>
<path d="" fill="#000000" transform="translate(0,0)"/>
<path d="M0 0 C2 1 2 1 2 1 Z " fill="#4A4A4A" transform="translate(348,100)"/>
<path d="M0 0 C2 1 2 1 2 1 Z " fill="#3F3346" transform="translate(322,100)"/>
<path d="" fill="#000000" transform="translate(0,0)"/>
<path d="" fill="#2A2A2A" transform="translate(0,0)"/>
<path d="" fill="#000000" transform="translate(0,0)"/>
<path d="" fill="#222233" transform="translate(0,0)"/>
<path d="" fill="#2E2E3A" transform="translate(0,0)"/>
<path d="" fill="#494949" transform="translate(0,0)"/>
<path d="" fill="#000080" transform="translate(0,0)"/>
<path d="" fill="#2A2A2A" transform="translate(0,0)"/>
<path d="" fill="#2B2B39" transform="translate(0,0)"/>
<path d="" fill="#2E2E40" transform="translate(0,0)"/>
<path d="" fill="#1C1C39" transform="translate(0,0)"/>
<path d="" fill="#494949" transform="translate(0,0)"/>
<path d="" fill="#000000" transform="translate(0,0)"/>
<path d="" fill="#393939" transform="translate(0,0)"/>
<path d="" fill="#2A2A55" transform="translate(0,0)"/>
<path d="" fill="#555555" transform="translate(0,0)"/>
<path d="" fill="#2E2E46" transform="translate(0,0)"/>
<path d="" fill="#333333" transform="translate(0,0)"/>
<path d="" fill="#2E2E46" transform="translate(0,0)"/>
<path d="" fill="#000080" transform="translate(0,0)"/>
<path d="" fill="#333333" transform="translate(0,0)"/>
<path d="" fill="#555555" transform="translate(0,0)"/>
<path d="" fill="#333333" transform="translate(0,0)"/>
<path d="" fill="#000000" transform="translate(0,0)"/>
<path d="" fill="#2F2F2F" transform="translate(0,0)"/>
<path d="" fill="#333333" transform="translate(0,0)"/>
<path d="" fill="#555555" transform="translate(0,0)"/>
<path d="" fill="#404040" transform="translate(0,0)"/>
<path d="" fill="#000000" transform="translate(0,0)"/>
<path d="" fill="#555555" transform="translate(0,0)"/>
<path d="" fill="#494949" transform="translate(0,0)"/>
<path d="" fill="#000055" transform="translate(0,0)"/>
<path d="" fill="#2A2A2A" transform="translate(0,0)"/>
<path d="" fill="#272727" transform="translate(0,0)"/>
<path d="" fill="#444444" transform="translate(0,0)"/>
<path d="" fill="#000000" transform="translate(0,0)"/>
<path d="" fill="#AAAAAA" transform="translate(0,0)"/>
<path d="" fill="#333333" transform="translate(0,0)"/>
<path d="" fill="#555555" transform="translate(0,0)"/>
<path d="" fill="#1C1C39" transform="translate(0,0)"/>
<path d="" fill="#000000" transform="translate(0,0)"/>
</svg>
