<?xml version="1.0" encoding="UTF-8"?>
<svg version="1.1" xmlns="http://www.w3.org/2000/svg" width="567" height="440">
<path d="M0 0 C0.74121094 -0.02900391 1.48242188 -0.05800781 2.24609375 -0.08789062 C5.6540651 -0.12766049 7.82211349 0.02655661 10.6875 1.94140625 C12.60352342 4.84897179 13.05093511 7.11966917 13.5 10.5625 C13.64953125 11.64015625 13.7990625 12.7178125 13.953125 13.828125 C14.10007813 15.05789062 14.10007813 15.05789062 14.25 16.3125 C17.17517707 17.28755902 19.07457771 17.44601039 22.12173462 17.46398926 C23.12569778 17.47233292 24.12966095 17.48067657 25.16404724 17.48927307 C26.26442825 17.49345749 27.36480927 17.49764191 28.49853516 17.50195312 C29.65804184 17.51024643 30.81754852 17.51853973 32.01219177 17.52708435 C34.53309379 17.54449845 37.05401212 17.55966153 39.57493973 17.57286072 C43.55767867 17.5938481 47.54035304 17.62073034 51.52304077 17.64953613 C60.69338873 17.7147271 69.86379064 17.77021142 79.03420258 17.82552338 C87.44383291 17.87633155 95.85343661 17.92916706 104.26300085 17.99004889 C108.8653867 18.02303777 113.46778112 18.04832303 118.07022095 18.0723877 C120.46690064 18.08898178 122.86357844 18.10585282 125.26025391 18.12304688 C126.36468338 18.12723129 127.46911285 18.13141571 128.60700989 18.13572693 C129.6053334 18.14407059 130.60365692 18.15241425 131.63223267 18.16101074 C132.50496134 18.16616447 133.37769001 18.17131821 134.27686501 18.17662811 C136.25 18.3125 136.25 18.3125 137.25 19.3125 C137.33865208 22.1968382 137.36521296 25.05712158 137.34765625 27.94140625 C137.34553383 29.23775246 137.34553383 29.23775246 137.34336853 30.56028748 C137.33775239 33.33189292 137.32519719 36.1034188 137.3125 38.875 C137.30748708 40.7493478 137.30292381 42.62369685 137.29882812 44.49804688 C137.28777772 49.10289544 137.2705023 53.70768421 137.25 58.3125 C128.40880129 60.96477712 119.6474985 63.20032659 110.5625 64.875 C109.44544678 65.08624512 108.32839355 65.29749023 107.17749023 65.51513672 C99.62653184 66.92536938 92.05872219 68.15206559 84.46264648 69.28930664 C79.54985443 70.04532747 74.87344604 71.14319513 70.10546875 72.5625 C66.41436592 73.53198255 62.69792291 74.17370221 58.9375 74.8125 C53.36593026 75.76912096 47.79810934 76.72663151 42.25 77.8125 C41.115625 78.0290625 39.98125 78.245625 38.8125 78.46875 C37.966875 78.7471875 37.12125 79.025625 36.25 79.3125 C35.755 80.7975 35.755 80.7975 35.25 82.3125 C38.18019768 85.67680104 39.85699214 86.74440999 44.25 87.3125 C47.28578537 87.44437557 50.31650675 87.43885152 53.35473633 87.42602539 C54.26254852 87.42617142 55.17036072 87.42631744 56.10568237 87.4264679 C59.09782321 87.42577281 62.08990132 87.41799931 65.08203125 87.41015625 C67.15996771 87.40829064 69.23790462 87.40686741 71.31584167 87.40586853 C76.77877013 87.40205465 82.24167191 87.39223399 87.70458984 87.38116455 C93.28157185 87.37092616 98.85855818 87.36636571 104.43554688 87.36132812 C115.37370963 87.35061072 126.31185259 87.33354784 137.25 87.3125 C137.27684312 90.12506281 137.29676188 92.93737241 137.3125 95.75 C137.32087891 96.55244141 137.32925781 97.35488281 137.33789062 98.18164062 C137.3465143 100.22545221 137.3022815 102.26933902 137.25 104.3125 C136.25 105.3125 136.25 105.3125 134.48413086 105.42602539 C133.73526611 105.42078857 132.98640137 105.41555176 132.21484375 105.41015625 C131.40595703 105.40693359 130.59707031 105.40371094 129.76367188 105.40039062 C128.91353516 105.39201172 128.06339844 105.38363281 127.1875 105.375 C126.33349609 105.37048828 125.47949219 105.36597656 124.59960938 105.36132812 C122.48304337 105.34950373 120.36651315 105.33156769 118.25 105.3125 C118.25 105.9725 118.25 106.6325 118.25 107.3125 C118.95125 107.10625 119.6525 106.9 120.375 106.6875 C124.50573622 106.14870832 127.58498309 107.47999154 131.25 109.3125 C131.25 109.9725 131.25 110.6325 131.25 111.3125 C131.86875 111.56 132.4875 111.8075 133.125 112.0625 C135.6989898 113.57661165 136.1473457 114.57271704 137.25 117.3125 C138.07086799 122.47100729 138.01207071 126.89744508 134.9375 131.25 C134.07745722 132.30116339 133.18108524 133.32371371 132.25 134.3125 C131.84523438 134.86550781 131.44046875 135.41851562 131.0234375 135.98828125 C128.21622762 138.08441374 125.62003483 137.63349348 122.1875 137.5625 C120.93839844 137.54703125 119.68929687 137.5315625 118.40234375 137.515625 C115.25 137.3125 115.25 137.3125 113.25 136.3125 C113.25 135.6525 113.25 134.9925 113.25 134.3125 C112.651875 134.065 112.05375 133.8175 111.4375 133.5625 C108.82564238 132.07000993 107.80396136 130.89086046 106.25 128.3125 C105.41094685 123.27818111 104.87839174 117.65723705 107.52734375 113.12890625 C109.125 111.5 109.125 111.5 112.25 109.3125 C112.91 109.3125 113.57 109.3125 114.25 109.3125 C114.25 108.6525 114.25 107.9925 114.25 107.3125 C114.91 106.9825 115.57 106.6525 116.25 106.3125 C115.32593857 106.30441315 114.40187714 106.29632629 113.44981384 106.28799438 C104.72520259 106.20993065 96.00074317 106.1226045 87.27632809 106.02497292 C82.79142769 105.97510818 78.30654974 105.92877751 73.8215332 105.890625 C69.4901667 105.85364781 65.15899249 105.80725463 60.82779121 105.75443649 C59.17849679 105.73595844 57.52916125 105.72082637 55.87980461 105.70915604 C53.56281884 105.69218019 51.24626717 105.66311922 48.92944336 105.63134766 C47.6126207 105.61802399 46.29579803 105.60470032 44.93907166 105.5909729 C38.07852083 105.07309804 31.18417177 102.83374979 25.25 99.3125 C22.9375 96.5 22.9375 96.5 21.25 93.3125 C20.60804688 92.2503125 19.96609375 91.188125 19.3046875 90.09375 C17.19227268 86.40321136 15.88254521 82.69223339 14.6875 78.625 C14.47335449 77.91931885 14.25920898 77.2136377 14.03857422 76.48657227 C12.87397259 72.59765045 11.81883564 68.69905463 10.875 64.75 C9.46763879 58.88201936 7.71120195 53.14012495 5.9375 47.375 C3.49590543 39.4350884 1.10385737 31.48469669 -1.1875 23.5 C-1.57578979 22.15723999 -1.57578979 22.15723999 -1.97192383 20.78735352 C-2.2067749 19.96420654 -2.44162598 19.14105957 -2.68359375 18.29296875 C-2.89040771 17.57004639 -3.09722168 16.84712402 -3.31030273 16.10229492 C-3.75 14.3125 -3.75 14.3125 -3.75 12.3125 C-4.67232422 12.45558594 -4.67232422 12.45558594 -5.61328125 12.6015625 C-6.42152344 12.71242188 -7.22976562 12.82328125 -8.0625 12.9375 C-8.86300781 13.05351563 -9.66351563 13.16953125 -10.48828125 13.2890625 C-12.75 13.3125 -12.75 13.3125 -15.75 11.3125 C-16.9077506 7.83924819 -16.81866652 4.95182552 -16.75 1.3125 C-11.14672516 0.53285882 -5.65598695 0.07534618 0 0 Z " fill="#073167" transform="translate(223.75,112.6875)"/>
<path d="M0 0 C1.88078247 0.00212242 1.88078247 0.00212242 3.79956055 0.00428772 C7.10717967 0.00891544 10.41474863 0.01787522 13.72235107 0.0289917 C17.10786327 0.03928449 20.49338286 0.04380208 23.87890625 0.04882812 C30.50262354 0.05982178 37.12630768 0.07653332 43.75 0.09765625 C43.77684312 2.91021906 43.79676188 5.72252866 43.8125 8.53515625 C43.82087891 9.33759766 43.82925781 10.14003906 43.83789062 10.96679688 C43.8465143 13.01060846 43.8022815 15.05449527 43.75 17.09765625 C42.75 18.09765625 42.75 18.09765625 40.98413086 18.21118164 C40.23526611 18.20594482 39.48640137 18.20070801 38.71484375 18.1953125 C37.90595703 18.19208984 37.09707031 18.18886719 36.26367188 18.18554688 C35.41353516 18.17716797 34.56339844 18.16878906 33.6875 18.16015625 C32.83349609 18.15564453 31.97949219 18.15113281 31.09960938 18.14648438 C28.98304337 18.13465998 26.86651315 18.11672394 24.75 18.09765625 C24.75 18.75765625 24.75 19.41765625 24.75 20.09765625 C25.45125 19.89140625 26.1525 19.68515625 26.875 19.47265625 C31.00573622 18.93386457 34.08498309 20.26514779 37.75 22.09765625 C37.75 22.75765625 37.75 23.41765625 37.75 24.09765625 C38.36875 24.34515625 38.9875 24.59265625 39.625 24.84765625 C42.1989898 26.3617679 42.6473457 27.35787329 43.75 30.09765625 C44.57086799 35.25616354 44.51207071 39.68260133 41.4375 44.03515625 C40.57745722 45.08631964 39.68108524 46.10886996 38.75 47.09765625 C38.34523438 47.65066406 37.94046875 48.20367187 37.5234375 48.7734375 C34.71622762 50.86956999 32.12003483 50.41864973 28.6875 50.34765625 C27.43839844 50.3321875 26.18929687 50.31671875 24.90234375 50.30078125 C21.75 50.09765625 21.75 50.09765625 19.75 49.09765625 C19.75 48.43765625 19.75 47.77765625 19.75 47.09765625 C19.151875 46.85015625 18.55375 46.60265625 17.9375 46.34765625 C15.32564238 44.85516618 14.30396136 43.67601671 12.75 41.09765625 C11.91094685 36.06333736 11.37839174 30.4423933 14.02734375 25.9140625 C15.625 24.28515625 15.625 24.28515625 18.75 22.09765625 C19.41 22.09765625 20.07 22.09765625 20.75 22.09765625 C20.75 21.43765625 20.75 20.77765625 20.75 20.09765625 C21.74 19.60265625 21.74 19.60265625 22.75 19.09765625 C21.82593857 19.0895694 20.90187714 19.08148254 19.94981384 19.07315063 C11.22520259 18.9950869 2.50074317 18.90776075 -6.22367191 18.81012917 C-10.70857231 18.76026443 -15.19345026 18.71393376 -19.6784668 18.67578125 C-24.0098333 18.63880406 -28.34100751 18.59241088 -32.67220879 18.53959274 C-34.32150321 18.52111469 -35.97083875 18.50598262 -37.62019539 18.49431229 C-39.93718116 18.47733644 -42.25373283 18.44827547 -44.57055664 18.41650391 C-45.8873793 18.40318024 -47.20420197 18.38985657 -48.56092834 18.37612915 C-52.37664865 18.08809606 -55.61719962 17.27246907 -59.25 16.09765625 C-60.19875 15.80890625 -61.1475 15.52015625 -62.125 15.22265625 C-62.82625 14.85140625 -63.5275 14.48015625 -64.25 14.09765625 C-64.8828125 12.02734375 -64.8828125 12.02734375 -65.25 10.09765625 C-64.20199219 10.02417969 -64.20199219 10.02417969 -63.1328125 9.94921875 C-62.22273437 9.87445313 -61.31265625 9.7996875 -60.375 9.72265625 C-59.47007812 9.65304688 -58.56515625 9.5834375 -57.6328125 9.51171875 C-55.07058097 9.30197493 -55.07058097 9.30197493 -53.25 7.09765625 C-53.0123291 6.41276123 -52.7746582 5.72786621 -52.52978516 5.0222168 C-51.25 3.09765625 -51.25 3.09765625 -48.39599609 2.47583008 C-47.20055176 2.41935303 -46.00510742 2.36287598 -44.7734375 2.3046875 C-43.46246094 2.23185547 -42.15148437 2.15902344 -40.80078125 2.08398438 C-39.40888434 2.02532143 -38.01695665 1.96738438 -36.625 1.91015625 C-34.5806222 1.80883211 -32.5365979 1.702077 -30.49258423 1.59367371 C-28.62228554 1.49728195 -26.75132842 1.41392588 -24.88037109 1.33129883 C-21.24091044 1.14426808 -21.24091044 1.14426808 -17.62353516 0.57910156 C-11.77192812 -0.18790619 -5.89085601 -0.02522108 0 0 Z " fill="#073067" transform="translate(317.25,199.90234375)"/>
<path d="M0 0 C6.6 0 13.2 0 20 0 C20.020625 2.784375 20.04125 5.56875 20.0625 8.4375 C20.071604 9.31591553 20.08070801 10.19433105 20.09008789 11.09936523 C20.09723091 13.06645974 20.05031893 15.03353621 20 17 C19 18 19 18 17.23413086 18.11352539 C16.48526611 18.10828857 15.73640137 18.10305176 14.96484375 18.09765625 C14.15595703 18.09443359 13.34707031 18.09121094 12.51367188 18.08789062 C11.66353516 18.07951172 10.81339844 18.07113281 9.9375 18.0625 C9.08349609 18.05798828 8.22949219 18.05347656 7.34960938 18.04882812 C5.23304337 18.03700373 3.11651315 18.01906769 1 18 C1 18.66 1 19.32 1 20 C1.70125 19.79375 2.4025 19.5875 3.125 19.375 C7.25573622 18.83620832 10.33498309 20.16749154 14 22 C14 22.66 14 23.32 14 24 C14.61875 24.2475 15.2375 24.495 15.875 24.75 C18.4489898 26.26411165 18.8973457 27.26021704 20 30 C20.82086799 35.15850729 20.76207071 39.58494508 17.6875 43.9375 C16.82745722 44.98866339 15.93108524 46.01121371 15 47 C14.59523438 47.55300781 14.19046875 48.10601562 13.7734375 48.67578125 C10.96622762 50.77191374 8.37003483 50.32099348 4.9375 50.25 C3.68839844 50.23453125 2.43929687 50.2190625 1.15234375 50.203125 C-2 50 -2 50 -4 49 C-4 48.34 -4 47.68 -4 47 C-4.598125 46.7525 -5.19625 46.505 -5.8125 46.25 C-8.42435762 44.75750993 -9.44603864 43.57836046 -11 41 C-11.83905315 35.96568111 -12.37160826 30.34473705 -9.72265625 25.81640625 C-8.125 24.1875 -8.125 24.1875 -5 22 C-4.34 22 -3.68 22 -3 22 C-3 21.34 -3 20.68 -3 20 C-2.01 19.505 -2.01 19.505 -1 19 C-1.92406143 18.99191315 -2.84812286 18.98382629 -3.80018616 18.97549438 C-12.52479741 18.89743065 -21.24925683 18.8101045 -29.97367191 18.71247292 C-34.45857231 18.66260818 -38.94345026 18.61627751 -43.4284668 18.578125 C-47.7598333 18.54114781 -52.09100751 18.49475463 -56.42220879 18.44193649 C-58.07150321 18.42345844 -59.72083875 18.40832637 -61.37019539 18.39665604 C-63.68718116 18.37968019 -66.00373283 18.35061922 -68.32055664 18.31884766 C-69.6373793 18.30552399 -70.95420197 18.29220032 -72.31092834 18.2784729 C-76.2030409 17.98467327 -79.30510569 17.19907974 -83 16 C-83 15.01 -83 14.02 -83 13 C-80 13 -80 13 -78 14 C-74.98000001 14.12298959 -71.98160625 14.18579555 -68.96044922 14.20532227 C-68.02381439 14.21522186 -67.08717957 14.22512146 -66.12216187 14.23532104 C-63.01636307 14.26698922 -59.91054896 14.29171448 -56.8046875 14.31640625 C-54.65519811 14.33697119 -52.50571281 14.35796753 -50.35623169 14.37937927 C-44.69109399 14.4346475 -39.02591951 14.48403581 -33.36071777 14.53222656 C-27.58289302 14.58240694 -21.80512187 14.63811106 -16.02734375 14.69335938 C-4.68494159 14.80099904 6.65750705 14.90243109 18 15 C17.505 9.06 17.505 9.06 17 3 C11.39 2.67 5.78 2.34 0 2 C0 1.34 0 0.68 0 0 Z " fill="#0A3369" transform="translate(341,200)"/>
<path d="M0 0 C2.97 0 5.94 0 9 0 C11.97 5.61 14.94 11.22 18 17 C20.65302854 14.34697146 22.00152878 11.20773563 23.625 7.875 C23.94984375 7.21628906 24.2746875 6.55757813 24.609375 5.87890625 C25.40986577 4.25438086 26.20541101 2.62742022 27 1 C30.3 1 33.6 1 37 1 C37 11.89 37 22.78 37 34 C34.69 34 32.38 34 30 34 C30 27.73 30 21.46 30 15 C25.9166396 21.65201835 25.9166396 21.65201835 22.3125 28.5625 C21 31 21 31 18 32 C12.9991715 27.71357557 10.77834832 22.95360355 8 17 C7.67 22.61 7.34 28.22 7 34 C4.36 34 1.72 34 -1 34 C-1.02468857 29.4793335 -1.04285449 24.9587061 -1.05493164 20.43798828 C-1.05996552 18.89956987 -1.06679308 17.36115625 -1.07543945 15.82275391 C-1.08754639 13.61359474 -1.09323769 11.40449874 -1.09765625 9.1953125 C-1.10281754 8.50567413 -1.10797882 7.81603577 -1.11329651 7.10549927 C-1.11387171 2.22774341 -1.11387171 2.22774341 0 0 Z " fill="#E76D45" transform="translate(286,280)"/>
<path d="M0 0 C0.79628549 4.20481438 1.12840003 8.17976991 1.1328125 12.45703125 C1.13474609 14.24850586 1.13474609 14.24850586 1.13671875 16.07617188 C1.13285156 17.30916016 1.12898438 18.54214844 1.125 19.8125 C1.13080078 21.69098633 1.13080078 21.69098633 1.13671875 23.60742188 C1.13542969 24.79529297 1.13414062 25.98316406 1.1328125 27.20703125 C1.13168457 28.2947583 1.13055664 29.38248535 1.12939453 30.50317383 C1 33 1 33 0 34 C-1.98 34 -3.96 34 -6 34 C-6.66 28.39 -7.32 22.78 -8 17 C-10.13650269 21.18169713 -10.13650269 21.18169713 -12.24707031 25.37646484 C-13.60010733 27.95613882 -14.70583588 29.79408511 -17.109375 31.4765625 C-19 32 -19 32 -21 31 C-22.05857666 29.0727001 -23.04909501 27.10763691 -24 25.125 C-25.54508166 21.91895555 -27.02408174 18.96387739 -29 16 C-28.98839844 17.21558594 -28.97679687 18.43117188 -28.96484375 19.68359375 C-28.95546722 21.26822764 -28.94636687 22.85286318 -28.9375 24.4375 C-28.92912109 25.23994141 -28.92074219 26.04238281 -28.91210938 26.86914062 C-28.9034857 28.91295221 -28.9477185 30.95683902 -29 33 C-29.495 33.495 -29.495 33.495 -30 34 C-32.31 34 -34.62 34 -37 34 C-37 23.11 -37 12.22 -37 1 C-33.7 1 -30.4 1 -27 1 C-26.51789063 1.90363281 -26.03578125 2.80726563 -25.5390625 3.73828125 C-24.90112135 4.92973017 -24.2630961 6.12113406 -23.625 7.3125 C-23.30789062 7.90740234 -22.99078125 8.50230469 -22.6640625 9.11523438 C-21.20613651 11.83365888 -19.71288297 14.43067554 -18 17 C-17.49210937 15.85660156 -16.98421875 14.71320313 -16.4609375 13.53515625 C-15.76680947 12.043719 -15.07143135 10.5528631 -14.375 9.0625 C-14.04371094 8.30775391 -13.71242188 7.55300781 -13.37109375 6.77539062 C-12.37558538 4.68106641 -11.42329453 2.83196885 -10 1 C-6.4563709 -0.17663137 -3.74682576 0 0 0 Z M-7 13 C-6 15 -6 15 -6 15 Z " fill="#E57148" transform="translate(278,280)"/>
<path d="M0 0 C3.88774135 1.9794727 6.56103648 4.34155472 9 8 C9.265625 10.99609375 9.265625 10.99609375 9.25 14.4375 C9.25515625 15.57058594 9.2603125 16.70367187 9.265625 17.87109375 C9.01398568 20.83525691 8.54596941 22.50313671 7 25 C6.34 25 5.68 25 5 25 C5 25.66 5 26.32 5 27 C4.34 27 3.68 27 3 27 C3 27.66 3 28.32 3 29 C-2.92416563 30.21521346 -9.05889755 31.11108315 -14.8125 28.9375 C-18.84824711 25.36298113 -20.61866421 21.55258144 -21.875 16.4375 C-22.06489898 11.21527797 -21.10226987 8.28101634 -17.6875 4.3125 C-11.67985373 -0.85687005 -7.78038351 -2.01175025 0 0 Z " fill="#0D3569" transform="translate(275,220)"/>
<path d="M0 0 C3.70526189 1.82999845 6.02379408 3.70632346 8.1875 7.3125 C9.84368051 12.70627707 9.90671744 18.15484768 8.125 23.5 C5.08591948 27.9115685 2.07442107 31.46617135 -3.2109375 33.015625 C-8.87803536 33.81773731 -13.91328485 33.42827494 -18.8125 30.3125 C-22.06678707 27.24255164 -25.57653749 23.79464408 -26.015625 19.17578125 C-26.13575946 12.6384643 -25.52603006 7.93054008 -21.5 2.5625 C-14.54454401 -2.58968962 -7.94313341 -3.21383358 0 0 Z M-17.8125 10.3125 C-19.29334889 14.14924484 -19.24323855 17.29232974 -17.625 21.125 C-14.90009857 24.41367413 -13.25067604 26.09364712 -8.9375 26.75 C-4.35144629 26.10795248 -1.25297559 24.12875183 1.625 20.5 C2.48954969 17.13786233 2.01077073 14.66438798 1.1875 11.3125 C-1.25746466 7.64505301 -3.59191582 4.80596315 -8.0625 3.8125 C-12.38157946 4.59778717 -15.1146702 6.90053879 -17.8125 10.3125 Z " fill="#EA683C" transform="translate(226.8125,281.6875)"/>
<path d="M0 0 C11.55172414 0 11.55172414 0 16.375 0.75 C17.35210937 0.88921875 18.32921875 1.0284375 19.3359375 1.171875 C22.51377026 2.15970571 23.88474654 3.46942281 26 6 C27.59453633 9.18907265 27.38561702 12.52944682 27 16 C24.86111111 20.56944444 24.86111111 20.56944444 22 22 C23.13441605 24.55243612 24.32422023 26.39097145 26.125 28.5625 C28 31 28 31 28 34 C24.84076252 34.56866275 22.13528713 34.76980221 19 34 C16.34306215 31.34306215 14.56722681 28.40487707 13 25 C13 24.34 13 23.68 13 23 C11.02 23.66 9.04 24.32 7 25 C6.67 27.97 6.34 30.94 6 34 C4.02 34 2.04 34 0 34 C0 22.78 0 11.56 0 0 Z M6 7 C5.979375 8.27875 5.95875 9.5575 5.9375 10.875 C5.92589844 11.59429687 5.91429687 12.31359375 5.90234375 13.0546875 C5.87350758 15.08185404 5.87350758 15.08185404 7 17 C13.19863615 17.62314211 13.19863615 17.62314211 18.5625 15 C19.2740625 14.01 19.2740625 14.01 20 13 C19.34 11.35 18.68 9.7 18 8 C16.14375 7.7525 16.14375 7.7525 14.25 7.5 C13.55390625 7.4071875 12.8578125 7.314375 12.140625 7.21875 C9.69541605 6.93222643 9.69541605 6.93222643 6 7 Z " fill="#EB683C" transform="translate(360,280)"/>
<path d="M0 0 C0.87205078 -0.01224609 1.74410156 -0.02449219 2.64257812 -0.03710938 C3.90038086 -0.04000977 3.90038086 -0.04000977 5.18359375 -0.04296875 C5.9511499 -0.04707764 6.71870605 -0.05118652 7.50952148 -0.05541992 C9.5625 0.1875 9.5625 0.1875 12.5625 2.1875 C12.75 4.8125 12.75 4.8125 12.5625 7.1875 C9.00204823 8.37431726 6.12441663 8.28439832 2.375 8.25 C1.10269531 8.24097656 -0.16960937 8.23195313 -1.48046875 8.22265625 C-2.94419922 8.20525391 -2.94419922 8.20525391 -4.4375 8.1875 C-4.1075 9.8375 -3.7775 11.4875 -3.4375 13.1875 C-0.12679162 14.18859515 2.86334769 14.29106134 6.3125 14.25 C7.29734375 14.24097656 8.2821875 14.23195313 9.296875 14.22265625 C10.04453125 14.21105469 10.7921875 14.19945312 11.5625 14.1875 C11.60504356 16.18704746 11.60330783 18.18791636 11.5625 20.1875 C10.5625 21.1875 10.5625 21.1875 7.18359375 21.28515625 C5.78902923 21.27848369 4.39448257 21.26652532 3 21.25 C2.28908203 21.24548828 1.57816406 21.24097656 0.84570312 21.23632812 C-0.91540013 21.22450864 -2.67646036 21.20657263 -4.4375 21.1875 C-4.1075 23.1675 -3.7775 25.1475 -3.4375 27.1875 C1.8425 27.1875 7.1225 27.1875 12.5625 27.1875 C13.5625 30.1875 13.5625 30.1875 13.5625 34.1875 C5.3125 34.1875 -2.9375 34.1875 -11.4375 34.1875 C-11.4375 23.2975 -11.4375 12.4075 -11.4375 1.1875 C-7.91593642 -0.57328179 -3.87858049 0.002854 0 0 Z " fill="#EC5B2B" transform="translate(341.4375,279.8125)"/>
<path d="M0 0 C0 1.98 0 3.96 0 6 C-5.66642551 7.22517308 -11.23708518 7.09228867 -17 7 C-16.34 8.98 -15.68 10.96 -15 13 C-14.14535156 12.98839844 -13.29070312 12.97679687 -12.41015625 12.96484375 C-11.30542969 12.95582031 -10.20070313 12.94679688 -9.0625 12.9375 C-7.96035156 12.92589844 -6.85820312 12.91429687 -5.72265625 12.90234375 C-3 13 -3 13 -2 14 C-2 15.98 -2 17.96 -2 20 C-6.95 20 -11.9 20 -17 20 C-16.67 21.98 -16.34 23.96 -16 26 C-14.39318359 25.98259766 -14.39318359 25.98259766 -12.75390625 25.96484375 C-11.35677257 25.95546701 -9.95963701 25.94636669 -8.5625 25.9375 C-7.85544922 25.92912109 -7.14839844 25.92074219 -6.41992188 25.91210938 C-4.61306441 25.90346412 -2.80612397 25.94779989 -1 26 C0 27 0 27 0 33 C-7.92 33 -15.84 33 -24 33 C-24.19471393 28.4377029 -24.38106207 23.87532785 -24.5625 19.3125 C-24.61857422 18.01892578 -24.67464844 16.72535156 -24.73242188 15.39257812 C-24.78076172 14.14541016 -24.82910156 12.89824219 -24.87890625 11.61328125 C-24.9260376 10.46641846 -24.97316895 9.31955566 -25.02172852 8.13793945 C-25.00181135 5.26158808 -24.6777202 2.78618306 -24 0 C-15.88303369 -1.28162626 -8.14684214 -0.6976874 0 0 Z " fill="#E28262" transform="translate(450,281)"/>
<path d="M0 0 C1.40475586 -0.00193359 1.40475586 -0.00193359 2.83789062 -0.00390625 C4.30838867 0.00189453 4.30838867 0.00189453 5.80859375 0.0078125 C6.79279297 0.00394531 7.77699219 0.00007813 8.79101562 -0.00390625 C9.72623047 -0.00261719 10.66144531 -0.00132812 11.625 0 C12.48681885 0.00112793 13.3486377 0.00225586 14.23657227 0.00341797 C16.24609375 0.1328125 16.24609375 0.1328125 17.24609375 1.1328125 C17.28673207 2.79898365 17.28881475 4.46669345 17.24609375 6.1328125 C14.11795838 7.96479919 11.85524084 8.38083173 8.24609375 8.3203125 C7.40046875 8.31386719 6.55484375 8.30742187 5.68359375 8.30078125 C3.41356898 8.14435326 1.42647771 7.76371064 -0.75390625 7.1328125 C-0.75390625 9.7728125 -0.75390625 12.4128125 -0.75390625 15.1328125 C0.07753906 14.88917969 0.07753906 14.88917969 0.92578125 14.640625 C3.47128714 14.08352775 5.76727063 14.00003989 8.37109375 14.0078125 C9.67433594 14.00394531 9.67433594 14.00394531 11.00390625 14 C13.24609375 14.1328125 13.24609375 14.1328125 15.24609375 15.1328125 C15.28881475 16.79893155 15.28673207 18.46664135 15.24609375 20.1328125 C14.24609375 21.1328125 14.24609375 21.1328125 10.8671875 21.23046875 C9.47262298 21.22379619 8.07807632 21.21183782 6.68359375 21.1953125 C5.97267578 21.19080078 5.26175781 21.18628906 4.52929688 21.18164062 C2.76819362 21.16982114 1.00713339 21.15188513 -0.75390625 21.1328125 C-0.75390625 23.1128125 -0.75390625 25.0928125 -0.75390625 27.1328125 C5.18609375 27.1328125 11.12609375 27.1328125 17.24609375 27.1328125 C17.24609375 29.4428125 17.24609375 31.7528125 17.24609375 34.1328125 C9.32609375 34.1328125 1.40609375 34.1328125 -6.75390625 34.1328125 C-7.79392994 31.01274142 -7.88302755 28.81885644 -7.88671875 25.546875 C-7.88800781 24.45117188 -7.88929687 23.35546875 -7.890625 22.2265625 C-7.88675781 21.081875 -7.88289063 19.9371875 -7.87890625 18.7578125 C-7.88277344 17.62085938 -7.88664062 16.48390625 -7.890625 15.3125 C-7.88933594 14.21421875 -7.88804688 13.1159375 -7.88671875 11.984375 C-7.88559082 10.98229004 -7.88446289 9.98020508 -7.88330078 8.94775391 C-7.7576154 6.21350402 -7.49389536 3.76876737 -6.75390625 1.1328125 C-4.3167441 -0.08576857 -2.72116568 0.00355675 0 0 Z " fill="#E25E33" transform="translate(125.75390625,279.8671875)"/>
<path d="M0 0 C1.670625 0.99 1.670625 0.99 3.375 2 C2.89566116 6.55371901 2.89566116 6.55371901 0.625 8.5 C-2.61075602 9.21905689 -3.86583071 7.70805718 -6.625 6 C-10.35450417 5.45611398 -12.1024656 5.72131499 -15.4375 7.5 C-18.36960343 10.85097535 -18.91370438 13.59944534 -18.625 18 C-17.29441589 21.60040406 -16.23972741 22.66469414 -12.875 24.5 C-8.64962051 25.15005838 -6.44530567 23.76866003 -2.625 22 C-0.17090169 22.26530793 1.18113829 22.90306915 3.375 24 C3.06595593 26.88441135 2.35882135 28.0176954 0.375 30.1875 C-3.64682179 32.61735067 -6.93690461 33.34536126 -11.625 33 C-15.11065988 31.95624391 -18.35568096 30.59029506 -21.625 29 C-21.625 28.34 -21.625 27.68 -21.625 27 C-22.553125 26.690625 -22.553125 26.690625 -23.5 26.375 C-26.5754151 24.38502553 -26.82717345 22.52373395 -27.625 19 C-28.26322759 13.2559517 -27.07450131 8.63127491 -23.625 4 C-21.484375 2.76953125 -21.484375 2.76953125 -19.625 2 C-19.625 1.34 -19.625 0.68 -19.625 0 C-13.37158862 -3.33515273 -6.24854783 -3.12982325 0 0 Z " fill="#E35D2D" transform="translate(194.625,282)"/>
<path d="M0 0 C0 4 0 4 -1.5 5.75 C-1.995 6.1625 -2.49 6.575 -3 7 C-3.969375 6.484375 -4.93875 5.96875 -5.9375 5.4375 C-10.35178837 3.56749597 -14.45701523 3.38009109 -19 5 C-21.76629824 8.41719194 -22.05129618 10.25620532 -21.75 14.625 C-21.20090655 17.09592053 -20.62124824 19.54714058 -20 22 C-13.80974647 22.19826435 -8.89198723 22.06219553 -3 20 C-2.01 20.66 -1.02 21.32 0 22 C-0.30466009 24.84349418 -1.01914353 26.02161366 -2.9375 28.1875 C-7.22048467 30.72232766 -11.0585368 31.19332798 -16 31 C-22.52232586 29.07537925 -26.27531884 25.58702173 -30 20 C-30.62693472 14.53983596 -31.34373711 8.15168069 -28.1875 3.375 C-27.465625 2.59125 -26.74375 1.8075 -26 1 C-25.525625 0.4225 -25.05125 -0.155 -24.5625 -0.75 C-16.86315401 -6.9094768 -7.87595903 -4.17072062 0 0 Z " fill="#E66C40" transform="translate(421,284)"/>
<path d="M0 0 C6.6 0 13.2 0 20 0 C20.020625 2.784375 20.04125 5.56875 20.0625 8.4375 C20.071604 9.31591553 20.08070801 10.19433105 20.09008789 11.09936523 C20.09723091 13.06645974 20.05031893 15.03353621 20 17 C18.1253719 18.8746281 15.41975048 18.13317618 12.92451477 18.14663696 C11.61392342 18.14595718 11.61392342 18.14595718 10.27685547 18.14526367 C8.9036187 18.15030159 8.9036187 18.15030159 7.50263977 18.15544128 C4.45747542 18.1649869 1.41236591 18.16689658 -1.6328125 18.16796875 C-3.74453759 18.1711802 -5.85626245 18.17454418 -7.96798706 18.17805481 C-12.40509557 18.18405607 -16.84218459 18.18589383 -21.27929688 18.18530273 C-26.95875201 18.18520137 -32.6380814 18.19882269 -38.31750679 18.21607494 C-42.68417939 18.22721089 -47.05082183 18.22922141 -51.41750717 18.22869301 C-53.51062323 18.22987191 -55.6037401 18.23428862 -57.69684219 18.24202538 C-60.63147928 18.2518518 -63.56584661 18.24893605 -66.50048828 18.24291992 C-67.36207047 18.24853943 -68.22365265 18.25415894 -69.11134338 18.25994873 C-74.12242119 18.23391984 -78.24773591 17.61034451 -83 16 C-83 15.01 -83 14.02 -83 13 C-80 13 -80 13 -78 14 C-74.98000001 14.12298959 -71.98160625 14.18579555 -68.96044922 14.20532227 C-68.02381439 14.21522186 -67.08717957 14.22512146 -66.12216187 14.23532104 C-63.01636307 14.26698922 -59.91054896 14.29171448 -56.8046875 14.31640625 C-54.65519811 14.33697119 -52.50571281 14.35796753 -50.35623169 14.37937927 C-44.69109399 14.4346475 -39.02591951 14.48403581 -33.36071777 14.53222656 C-27.58289302 14.58240694 -21.80512187 14.63811106 -16.02734375 14.69335938 C-4.68494159 14.80099904 6.65750705 14.90243109 18 15 C17.505 9.06 17.505 9.06 17 3 C11.39 2.67 5.78 2.34 0 2 C0 1.34 0 0.68 0 0 Z " fill="#335579" transform="translate(341,200)"/>
<path d="M0 0 C11.38461538 0 11.38461538 0 16.5 0.875 C17.5003125 1.03742188 18.500625 1.19984375 19.53125 1.3671875 C22 2 22 2 24 4 C16.74 3.67 9.48 3.34 2 3 C2 6.96 2 10.92 2 15 C3.12126781 11.20211302 3.12126781 11.20211302 3 8 C3.66 8 4.32 8 5 8 C5 7.34 5 6.68 5 6 C7.31 6 9.62 6 12 6 C11.34 6.66 10.68 7.32 10 8 C8.68 7.67 7.36 7.34 6 7 C6.33 10.3 6.66 13.6 7 17 C8.423125 16.855625 9.84625 16.71125 11.3125 16.5625 C12.11300781 16.48128906 12.91351563 16.40007812 13.73828125 16.31640625 C16.16087179 16.04734307 16.16087179 16.04734307 19 15 C18.67 15.99 18.34 16.98 18 18 C15.69 18.33 13.38 18.66 11 19 C12.98 19.66 14.96 20.32 17 21 C17 24 17 27 17 30 C13 25.25 13 25.25 13 23 C11.02 23.66 9.04 24.32 7 25 C6.67 27.97 6.34 30.94 6 34 C4.02 34 2.04 34 0 34 C0 22.78 0 11.56 0 0 Z " fill="#E86639" transform="translate(360,280)"/>
<path d="M0 0 C3.3 0 6.6 0 10 0 C10 10.89 10 21.78 10 33 C7.69 33 5.38 33 3 33 C3 26.73 3 20.46 3 14 C1.02 14.33 -0.96 14.66 -3 15 C-3.33 13.68 -3.66 12.36 -4 11 C-3.34 11 -2.68 11 -2 11 C-1.24758891 7.34543185 -0.59950296 3.68266103 0 0 Z " fill="#E36E47" transform="translate(313,281)"/>
<path d="M0 0 C15.62883372 0.10710523 31.2576159 0.21984222 46.88635921 0.33933926 C54.14256597 0.39468781 61.39877764 0.44817243 68.6550293 0.49731445 C74.97736939 0.54013636 81.29967304 0.58640922 87.62195688 0.63687855 C90.97154607 0.66349563 94.32112795 0.68834901 97.6707592 0.70907402 C101.40417429 0.73303965 105.13749223 0.76310458 108.87084961 0.79467773 C109.98934296 0.8004332 111.1078363 0.80618866 112.26022339 0.81211853 C113.77683311 0.82680176 113.77683311 0.82680176 115.32408142 0.84178162 C116.65008063 0.85146044 116.65008063 0.85146044 118.0028677 0.8613348 C120 1 120 1 121 2 C121.08865208 4.8843382 121.11521296 7.74462158 121.09765625 10.62890625 C121.0962413 11.49313705 121.09482635 12.35736786 121.09336853 13.24778748 C121.08775239 16.01939292 121.07519719 18.7909188 121.0625 21.5625 C121.05748708 23.4368478 121.05292381 25.31119685 121.04882812 27.18554688 C121.03777772 31.79039544 121.0205023 36.39518421 121 41 C120.67 41 120.34 41 120 41 C120 28.46 120 15.92 120 3 C80.4 3 40.8 3 0 3 C0 2.01 0 1.02 0 0 Z " fill="#768AA7" transform="translate(240,130)"/>
<path d="M0 0 C6.93 0.33 13.86 0.66 21 1 C21 1.99 21 2.98 21 4 C15.39 4 9.78 4 4 4 C4.99 5.485 4.99 5.485 6 7 C6.125 10.1875 6.125 10.1875 6 13 C5.01 12.67 4.02 12.34 3 12 C3 13.32 3 14.64 3 16 C4.32 16 5.64 16 7 16 C7 15.34 7 14.68 7 14 C10.96 14 14.92 14 19 14 C19 14.99 19 15.98 19 17 C14.38 17.33 9.76 17.66 5 18 C4.67 20.97 4.34 23.94 4 27 C4.66 27 5.32 27 6 27 C6 28.32 6 29.64 6 31 C4.02 31 2.04 31 0 31 C0 20.77 0 10.54 0 0 Z " fill="#EB5723" transform="translate(427,282)"/>
<path d="M0 0 C3.14210245 1.08364678 6.06493576 2.4457343 9 4 C9 8 9 8 7.5 9.75 C7.005 10.1625 6.51 10.575 6 11 C5.030625 10.484375 4.06125 9.96875 3.0625 9.4375 C-1.36071134 7.56371597 -5.44588221 7.39426524 -10 9 C-12.40533186 11.82980218 -13.03201434 13.68954627 -12.94140625 17.3984375 C-12.71331532 19.62320136 -12.40554006 21.80128884 -12 24 C-12.99 23.67 -13.98 23.34 -15 23 C-15.16781295 20.39590255 -15.33429651 17.7917318 -15.5 15.1875 C-15.54769531 14.44951172 -15.59539062 13.71152344 -15.64453125 12.95117188 C-15.83390613 9.96175412 -16 6.99625426 -16 4 C-10.55069592 0.27152879 -6.53816048 -0.77691104 0 0 Z " fill="#F05A30" transform="translate(412,280)"/>
<path d="M0 0 C1.670625 0.99 1.670625 0.99 3.375 2 C2.89566116 6.55371901 2.89566116 6.55371901 0.625 8.5 C-2.61075602 9.21905689 -3.86583071 7.70805718 -6.625 6 C-10.35450417 5.45611398 -12.1024656 5.72131499 -15.4375 7.5 C-18.37355439 10.85549073 -18.66980173 13.62735095 -18.625 18 C-18.28999921 20.36693717 -18.28999921 20.36693717 -17.625 22 C-18.285 22 -18.945 22 -19.625 22 C-19.625 21.34 -19.625 20.68 -19.625 20 C-20.285 20 -20.945 20 -21.625 20 C-21.625 17.03 -21.625 14.06 -21.625 11 C-20.965 11 -20.305 11 -19.625 11 C-19.625 9.35 -19.625 7.7 -19.625 6 C-18.635 6 -17.645 6 -16.625 6 C-16.625 5.34 -16.625 4.68 -16.625 4 C-17.7696875 4.5259375 -17.7696875 4.5259375 -18.9375 5.0625 C-21.625 6 -21.625 6 -24.625 5 C-23.25 3.5 -23.25 3.5 -21.625 2 C-20.965 2 -20.305 2 -19.625 2 C-19.625 1.34 -19.625 0.68 -19.625 0 C-13.37158862 -3.33515273 -6.24854783 -3.12982325 0 0 Z " fill="#E5714C" transform="translate(194.625,282)"/>
<path d="M0 0 C0.77472656 0.00451172 1.54945313 0.00902344 2.34765625 0.01367188 C4.23180524 0.02530242 6.11591365 0.04323094 8 0.0625 C8 0.7225 8 1.3825 8 2.0625 C1.4 2.0625 -5.2 2.0625 -12 2.0625 C-8.8035914 3.12796953 -6.34252724 3.13677838 -3 3.0625 C-3 3.7225 -3 4.3825 -3 5.0625 C-2.34 5.3925 -1.68 5.7225 -1 6.0625 C-1.33 6.7225 -1.66 7.3825 -2 8.0625 C-1.69320312 8.80886719 -1.38640625 9.55523437 -1.0703125 10.32421875 C0.12714267 13.38778106 0.2038308 15.60352167 0.125 18.875 C0.10695312 19.85082031 0.08890625 20.82664063 0.0703125 21.83203125 C0.04710937 22.56808594 0.02390625 23.30414063 0 24.0625 C-1.90318884 21.20771674 -2.4619099 19.64308692 -3.125 16.375 C-3.29257813 15.56675781 -3.46015625 14.75851563 -3.6328125 13.92578125 C-3.75398437 13.31089844 -3.87515625 12.69601563 -4 12.0625 C-4.92232422 12.20558594 -4.92232422 12.20558594 -5.86328125 12.3515625 C-6.67152344 12.46242188 -7.47976562 12.57328125 -8.3125 12.6875 C-9.11300781 12.80351563 -9.91351563 12.91953125 -10.73828125 13.0390625 C-13 13.0625 -13 13.0625 -16 11.0625 C-17.1577506 7.58924819 -17.06866652 4.70182552 -17 1.0625 C-11.28094617 0.23713655 -5.7732851 -0.06503701 0 0 Z " fill="#103567" transform="translate(224,112.9375)"/>
<path d="M0 0 C5 0 5 0 8 2 C8.375 4.375 8.375 4.375 8 7 C7.51144531 7.51304687 7.02289063 8.02609375 6.51953125 8.5546875 C4.14010232 12.38379422 4.42688431 16.32496114 4.3125 20.75 C4.27833984 21.63816406 4.24417969 22.52632813 4.20898438 23.44140625 C4.12671286 25.62747803 4.05749828 27.81315951 4 30 C2.68 30 1.36 30 0 30 C0 20.1 0 10.2 0 0 Z " fill="#F15722" transform="translate(243,283)"/>
<path d="M0 0 C2.64 0 5.28 0 8 0 C8.33 2.31 8.66 4.62 9 7 C7.68 7 6.36 7 5 7 C4.67 14.59 4.34 22.18 4 30 C2.68 30 1.36 30 0 30 C0 20.1 0 10.2 0 0 Z " fill="#EF5620" transform="translate(287,283)"/>
<path d="M0 0 C0.87205078 -0.01224609 1.74410156 -0.02449219 2.64257812 -0.03710938 C3.90038086 -0.04000977 3.90038086 -0.04000977 5.18359375 -0.04296875 C5.9511499 -0.04707764 6.71870605 -0.05118652 7.50952148 -0.05541992 C9.5625 0.1875 9.5625 0.1875 12.5625 2.1875 C12.75 4.8125 12.75 4.8125 12.5625 7.1875 C9.5625 8.1875 9.5625 8.1875 7.375 7.25 C6.776875 6.899375 6.17875 6.54875 5.5625 6.1875 C7.2125 6.1875 8.8625 6.1875 10.5625 6.1875 C10.5625 5.1975 10.5625 4.2075 10.5625 3.1875 C3.6325 3.1875 -3.2975 3.1875 -10.4375 3.1875 C-10.4375 13.0875 -10.4375 22.9875 -10.4375 33.1875 C-3.1775 33.1875 4.0825 33.1875 11.5625 33.1875 C11.5625 31.5375 11.5625 29.8875 11.5625 28.1875 C6.2825 28.1875 1.0025 28.1875 -4.4375 28.1875 C-4.1075 27.1975 -3.7775 26.2075 -3.4375 25.1875 C-3.4375 25.8475 -3.4375 26.5075 -3.4375 27.1875 C1.8425 27.1875 7.1225 27.1875 12.5625 27.1875 C13.5625 30.1875 13.5625 30.1875 13.5625 34.1875 C5.3125 34.1875 -2.9375 34.1875 -11.4375 34.1875 C-11.4375 23.2975 -11.4375 12.4075 -11.4375 1.1875 C-7.91593642 -0.57328179 -3.87858049 0.002854 0 0 Z " fill="#DC7E5E" transform="translate(341.4375,279.8125)"/>
<path d="M0 0 C1.45742463 -0.08096803 2.91612807 -0.13917774 4.375 -0.1875 C5.18710937 -0.22230469 5.99921875 -0.25710938 6.8359375 -0.29296875 C7.55007813 -0.19628906 8.26421875 -0.09960938 9 0 C11 3 11 3 10.625 5.1875 C10.41875 5.785625 10.2125 6.38375 10 7 C9.67 5.68 9.34 4.36 9 3 C6.36 3 3.72 3 1 3 C1 12.9 1 22.8 1 33 C2.65 33 4.3 33 6 33 C6 25.74 6 18.48 6 11 C7.32 11.33 8.64 11.66 10 12 C9.67 13.65 9.34 15.3 9 17 C8.67 17 8.34 17 8 17 C7.67 22.61 7.34 28.22 7 34 C4.36 34 1.72 34 -1 34 C-1.02468857 29.4793335 -1.04285449 24.9587061 -1.05493164 20.43798828 C-1.05996552 18.89956987 -1.06679308 17.36115625 -1.07543945 15.82275391 C-1.08754639 13.61359474 -1.09323769 11.40449874 -1.09765625 9.1953125 C-1.10281754 8.50567413 -1.10797882 7.81603577 -1.11329651 7.10549927 C-1.11387171 2.22774341 -1.11387171 2.22774341 0 0 Z " fill="#E79376" transform="translate(286,280)"/>
<path d="M0 0 C1.40475586 -0.00193359 1.40475586 -0.00193359 2.83789062 -0.00390625 C4.30838867 0.00189453 4.30838867 0.00189453 5.80859375 0.0078125 C6.79279297 0.00394531 7.77699219 0.00007813 8.79101562 -0.00390625 C9.72623047 -0.00261719 10.66144531 -0.00132812 11.625 0 C12.48681885 0.00112793 13.3486377 0.00225586 14.23657227 0.00341797 C16.24609375 0.1328125 16.24609375 0.1328125 17.24609375 1.1328125 C17.28673207 2.79898365 17.28881475 4.46669345 17.24609375 6.1328125 C16.58609375 5.1428125 15.92609375 4.1528125 15.24609375 3.1328125 C12.38154216 2.9370978 9.72538977 2.89876132 6.87109375 3.0078125 C5.34257057 3.05141132 3.81391448 3.09061616 2.28515625 3.125 C1.60662598 3.14933105 0.9280957 3.17366211 0.22900391 3.19873047 C-1.75390625 3.1328125 -1.75390625 3.1328125 -5.75390625 2.1328125 C-5.75390625 12.3628125 -5.75390625 22.5928125 -5.75390625 33.1328125 C1.17609375 33.1328125 8.10609375 33.1328125 15.24609375 33.1328125 C15.57609375 31.4828125 15.90609375 29.8328125 16.24609375 28.1328125 C10.63609375 28.1328125 5.02609375 28.1328125 -0.75390625 28.1328125 C-0.75390625 27.8028125 -0.75390625 27.4728125 -0.75390625 27.1328125 C5.18609375 27.1328125 11.12609375 27.1328125 17.24609375 27.1328125 C17.24609375 29.4428125 17.24609375 31.7528125 17.24609375 34.1328125 C9.32609375 34.1328125 1.40609375 34.1328125 -6.75390625 34.1328125 C-7.79392994 31.01274142 -7.88302755 28.81885644 -7.88671875 25.546875 C-7.88800781 24.45117188 -7.88929687 23.35546875 -7.890625 22.2265625 C-7.88675781 21.081875 -7.88289063 19.9371875 -7.87890625 18.7578125 C-7.88277344 17.62085938 -7.88664062 16.48390625 -7.890625 15.3125 C-7.88933594 14.21421875 -7.88804688 13.1159375 -7.88671875 11.984375 C-7.88559082 10.98229004 -7.88446289 9.98020508 -7.88330078 8.94775391 C-7.7576154 6.21350402 -7.49389536 3.76876737 -6.75390625 1.1328125 C-4.3167441 -0.08576857 -2.72116568 0.00355675 0 0 Z " fill="#DD896C" transform="translate(125.75390625,279.8671875)"/>
<path d="M0 0 C3 1 3 1 4.38671875 3.109375 C4.81597656 3.98078125 5.24523437 4.8521875 5.6875 5.75 C6.34298828 7.04164063 6.34298828 7.04164063 7.01171875 8.359375 C8.04127438 11.11028252 8.19360389 13.09070905 8 16 C8.66 16 9.32 16 10 16 C9.67 17.65 9.34 19.3 9 21 C8.34 20.67 7.68 20.34 7 20 C7.33 19.34 7.66 18.68 8 18 C7.360625 18.185625 6.72125 18.37125 6.0625 18.5625 C5.381875 18.706875 4.70125 18.85125 4 19 C3 18 3 18 2.9375 15.4375 C2.958125 14.633125 2.97875 13.82875 3 13 C1.68 12.67 0.36 12.34 -1 12 C-1 10.02 -1 8.04 -1 6 C-1.99 5.67 -2.98 5.34 -4 5 C-4 12.26 -4 19.52 -4 27 C-4.33 27 -4.66 27 -5 27 C-5.05786668 23.20839703 -5.09355054 19.41690689 -5.125 15.625 C-5.14175781 14.54476563 -5.15851563 13.46453125 -5.17578125 12.3515625 C-5.18222656 11.3203125 -5.18867188 10.2890625 -5.1953125 9.2265625 C-5.20578613 8.27346191 -5.21625977 7.32036133 -5.22705078 6.33837891 C-5 4 -5 4 -3 2 C-3 2.66 -3 3.32 -3 4 C-2.01 4 -1.02 4 0 4 C0 2.68 0 1.36 0 0 Z " fill="#E35D32" transform="translate(296,286)"/>
<path d="M0 0 C0 0.66 0 1.32 0 2 C-0.99 2 -1.98 2 -3 2 C-2.67 2.99 -2.34 3.98 -2 5 C-2.33 5.66 -2.66 6.32 -3 7 C-3.66 7 -4.32 7 -5 7 C-5 9.97 -5 12.94 -5 16 C-4.34 16 -3.68 16 -3 16 C-3 16.66 -3 17.32 -3 18 C-2.34 18 -1.68 18 -1 18 C-1.33 19.32 -1.66 20.64 -2 22 C-4.31 21.67 -6.62 21.34 -9 21 C-11.25294963 15.22681657 -11.93341682 10.60374167 -9.8125 4.6875 C-7.13759762 0.72126543 -4.67778401 0 0 0 Z " fill="#EB6635" transform="translate(178,286)"/>
<path d="M0 0 C-0.15597656 0.53367187 -0.31195313 1.06734375 -0.47265625 1.6171875 C-2.30535565 8.63242097 -2.30570655 15.08288034 0 22 C-6.15234375 21.4140625 -6.15234375 21.4140625 -8 21 C-9.29060033 18.41879934 -9.13272333 16.50580171 -9.125 13.625 C-9.12757813 12.66851562 -9.13015625 11.71203125 -9.1328125 10.7265625 C-9.01551878 8.31859146 -8.68675951 6.30009932 -8 4 C-7.34 4 -6.68 4 -6 4 C-6 3.34 -6 2.68 -6 2 C-2.25 0 -2.25 0 0 0 Z " fill="#E5683C" transform="translate(211,286)"/>
<path d="M0 0 C2.54173977 -0.02716824 5.08318415 -0.04691969 7.625 -0.0625 C8.33785156 -0.07087891 9.05070312 -0.07925781 9.78515625 -0.08789062 C13.97344438 -0.10710296 17.8728462 0.1732673 22 1 C22.33 3.31 22.66 5.62 23 8 C22.01 8.66 21.02 9.32 20 10 C19.65324219 9.20207031 19.30648438 8.40414063 18.94921875 7.58203125 C17.1702358 4.68039022 17.1702358 4.68039022 13.64453125 4.07421875 C12.37996094 3.94660156 11.11539062 3.81898438 9.8125 3.6875 C8.54019531 3.54699219 7.26789063 3.40648437 5.95703125 3.26171875 C4.49330078 3.13216797 4.49330078 3.13216797 3 3 C3 3.66 3 4.32 3 5 C2.01 5.495 2.01 5.495 1 6 C1.20625 6.78375 1.4125 7.5675 1.625 8.375 C1.810625 9.674375 1.810625 9.674375 2 11 C1.34 11.66 0.68 12.32 0 13 C-1 12 -1 12 -1.1328125 9.78515625 C-1.13023437 8.88667969 -1.12765625 7.98820312 -1.125 7.0625 C-1.12757813 6.16660156 -1.13015625 5.27070313 -1.1328125 4.34765625 C-1 2 -1 2 0 0 Z " fill="#EC5624" transform="translate(362,283)"/>
<path d="M0 0 C6.6 0 13.2 0 20 0 C20.020625 2.784375 20.04125 5.56875 20.0625 8.4375 C20.071604 9.31591553 20.08070801 10.19433105 20.09008789 11.09936523 C20.09723091 13.06645974 20.05031893 15.03353621 20 17 C19 18 19 18 17.20933533 18.12025452 C16.42990067 18.11803391 15.650466 18.11581329 14.84741211 18.11352539 C13.96657455 18.11344986 13.085737 18.11337433 12.1782074 18.11329651 C11.22092239 18.10813522 10.26363739 18.10297394 9.27734375 18.09765625 C8.30213272 18.0962413 7.32692169 18.09482635 6.32215881 18.09336853 C3.19390857 18.08775133 0.06572877 18.07519593 -3.0625 18.0625 C-5.17773334 18.05748722 -7.29296781 18.05292393 -9.40820312 18.04882812 C-14.60549296 18.03777631 -19.80274145 18.02102146 -25 18 C-25 17.67 -25 17.34 -25 17 C-10.81 16.67 3.38 16.34 18 16 C17.67 11.71 17.34 7.42 17 3 C11.39 2.67 5.78 2.34 0 2 C0 1.34 0 0.68 0 0 Z " fill="#7997AE" transform="translate(341,200)"/>
<path d="M0 0 C1 1 1 1 1 7 C-4.61 7 -10.22 7 -16 7 C-16.33 5.02 -16.66 3.04 -17 1 C-4.55719557 -0.2398524 -4.55719557 -0.2398524 0 0 Z " fill="#DF6942" transform="translate(163,296)"/>
<path d="M0 0 C11.38461538 0 11.38461538 0 16.5 0.875 C17.5003125 1.03742188 18.500625 1.19984375 19.53125 1.3671875 C22 2 22 2 24 4 C16.74 3.67 9.48 3.34 2 3 C1.67 12.9 1.34 22.8 1 33 C2.32 33 3.64 33 5 33 C5 29.7 5 26.4 5 23 C6.65 23 8.3 23 10 23 C9.01 23.66 8.02 24.32 7 25 C6.42006301 27.19454681 6.42006301 27.19454681 6.3125 29.625 C6.24675781 30.44226563 6.18101562 31.25953125 6.11328125 32.1015625 C6.07589844 32.72804688 6.03851563 33.35453125 6 34 C4.02 34 2.04 34 0 34 C0 22.78 0 11.56 0 0 Z " fill="#E07F5E" transform="translate(360,280)"/>
<path d="M0 0 C0.33 0 0.66 0 1 0 C1.33 2.97 1.66 5.94 2 9 C7.61 9.33 13.22 9.66 19 10 C19 11.32 19 12.64 19 14 C12.4 14 5.8 14 -1 14 C-1.09765625 3.94140625 -1.09765625 3.94140625 -1 1 C-0.67 0.67 -0.34 0.34 0 0 Z " fill="#EF561F" transform="translate(122,299)"/>
<path d="M0 0 C-0.33 8.58 -0.66 17.16 -1 26 C-1.66 26 -2.32 26 -3 26 C-2.95875 24.88625 -2.9175 23.7725 -2.875 22.625 C-2.85699278 17.60098664 -3.88041764 12.8781803 -5 8 C-6.65 7.67 -8.3 7.34 -10 7 C-9.67 6.34 -9.34 5.68 -9 5 C-8.34 5.33 -7.68 5.66 -7 6 C-7.226875 5.401875 -7.45375 4.80375 -7.6875 4.1875 C-8 2 -8 2 -6.875 0.1875 C-5 -1 -5 -1 0 0 Z " fill="#F05620" transform="translate(322,284)"/>
<path d="M0 0 C0.66 0 1.32 0 2 0 C4.30617665 6.91852994 3.07255045 14.89435328 2 22 C0.68 22 -0.64 22 -2 22 C-2.05790353 18.70840684 -2.09356261 15.41694397 -2.125 12.125 C-2.14175781 11.18785156 -2.15851563 10.25070312 -2.17578125 9.28515625 C-2.18544922 7.94130859 -2.18544922 7.94130859 -2.1953125 6.5703125 C-2.20578613 5.74289551 -2.21625977 4.91547852 -2.22705078 4.06298828 C-2 2 -2 2 0 0 Z " fill="#ED5623" transform="translate(275,291)"/>
<path d="M0 0 C-0.625 2.375 -0.625 2.375 -2 5 C-7.00169226 7.68383487 -11.61792606 6.88505216 -17 6 C-17 4.35 -17 2.7 -17 1 C-14.91835982 0.63601378 -12.83459438 0.28416713 -10.75 -0.0625 C-9.00976562 -0.35833984 -9.00976562 -0.35833984 -7.234375 -0.66015625 C-4.37477376 -0.9606216 -2.66674071 -0.9439206 0 0 Z " fill="#E86E44" transform="translate(229,308)"/>
<path d="M0 0 C0 3.7282791 -1.01166732 4.84609299 -3 8 C-6.76911754 14.06872794 -9.03010338 18.10700893 -7.5 25.375 C-7.335 25.91125 -7.17 26.4475 -7 27 C-9.7609957 24.74500351 -10.89536579 23.52588883 -11.6015625 19.9765625 C-11.67263363 9.81339026 -11.67263363 9.81339026 -8.125 6.1875 C-5 4 -5 4 -3 4 C-3 3.34 -3 2.68 -3 2 C-2.01 1.34 -1.02 0.68 0 0 Z " fill="#3A557E" transform="translate(341,218)"/>
<path d="M0 0 C4.6875 3.61328125 4.6875 3.61328125 6 5 C6 5.99 6 6.98 6 8 C6.99 8.33 7.98 8.66 9 9 C8.67 11.31 8.34 13.62 8 16 C5.525 15.01 5.525 15.01 3 14 C3 13.34 3 12.68 3 12 C2.01 11.67 1.02 11.34 0 11 C-1.62651522 7.74696956 -1.11453156 4.60774398 -1 1 C-0.67 0.67 -0.34 0.34 0 0 Z " fill="#E75A2B" transform="translate(253,292)"/>
<path d="M0 0 C0.99 0.66 1.98 1.32 3 2 C2.07767578 1.98259766 2.07767578 1.98259766 1.13671875 1.96484375 C-0.07564453 1.95130859 -0.07564453 1.95130859 -1.3125 1.9375 C-2.11300781 1.92589844 -2.91351563 1.91429687 -3.73828125 1.90234375 C-6.16861334 1.90342145 -6.16861334 1.90342145 -9 3 C-8.67 3.99 -8.34 4.98 -8 6 C-7.34 6.33 -6.68 6.66 -6 7 C-7.98 8.32 -9.96 9.64 -12 11 C-11.67 9.35 -11.34 7.7 -11 6 C-12.98 6.66 -14.96 7.32 -17 8 C-17 8.66 -17 9.32 -17 10 C-17.66 10 -18.32 10 -19 10 C-19.33 14.29 -19.66 18.58 -20 23 C-20.33 23 -20.66 23 -21 23 C-21.39436285 15.74080233 -21.19204424 10.25605899 -16.6875 4.25 C-11.38087044 0.31916329 -6.5097841 -0.95476833 0 0 Z " fill="#E48766" transform="translate(222,280)"/>
<path d="M0 0 C0.33 1.32 0.66 2.64 1 4 C-4.94 4 -10.88 4 -17 4 C-17.33 6.97 -17.66 9.94 -18 13 C-18.66 13 -19.32 13 -20 13 C-20 9.04 -20 5.08 -20 1 C-10.1 0.505 -10.1 0.505 0 0 Z " fill="#EE5722" transform="translate(141,282)"/>
<path d="M0 0 C0.66 1.32 1.32 2.64 2 4 C2.85464844 3.98839844 3.70929688 3.97679687 4.58984375 3.96484375 C5.69457031 3.95582031 6.79929687 3.94679688 7.9375 3.9375 C9.03964844 3.92589844 10.14179688 3.91429687 11.27734375 3.90234375 C14 4 14 4 15 5 C15 6.98 15 8.96 15 11 C10.05 11 5.1 11 0 11 C-0.33 12.32 -0.66 13.64 -1 15 C-1 13.02 -1 11.04 -1 9 C3.62 9 8.24 9 13 9 C13 8.01 13 7.02 13 6 C9.04 6 5.08 6 1 6 C1 6.66 1 7.32 1 8 C-0.32 8 -1.64 8 -3 8 C-3 6.68 -3 5.36 -3 4 C-2.34 4 -1.68 4 -1 4 C-0.67 2.68 -0.34 1.36 0 0 Z " fill="#E08262" transform="translate(433,290)"/>
<path d="M0 0 C1.32 0.33 2.64 0.66 4 1 C3.34 2.32 2.68 3.64 2 5 C2.433125 5.47050781 2.86625 5.94101562 3.3125 6.42578125 C3.869375 7.04839844 4.42625 7.67101562 5 8.3125 C5.556875 8.92738281 6.11375 9.54226563 6.6875 10.17578125 C8 12 8 12 8 15 C5.03 15 2.06 15 -1 15 C-1.66 13.68 -2.32 12.36 -3 11 C-2.34 11 -1.68 11 -1 11 C-1.020625 9.741875 -1.04125 8.48375 -1.0625 7.1875 C-1.10886083 4.35948913 -0.91692961 2.75078884 0 0 Z " fill="#E6754F" transform="translate(380,299)"/>
<path d="M0 0 C1.32 0.66 2.64 1.32 4 2 C4 1.34 4 0.68 4 0 C4.66 0.33 5.32 0.66 6 1 C4.93048787 3.13301576 3.84556483 5.25541742 2.75 7.375 C2.44964844 7.97828125 2.14929688 8.5815625 1.83984375 9.203125 C0.46286604 11.83989084 -0.64989102 13.75492371 -3.109375 15.4765625 C-5 16 -5 16 -7 15 C-8.05352843 12.69034152 -9.05719096 10.3570226 -10 8 C-9.34 8 -8.68 8 -8 8 C-8 8.66 -8 9.32 -8 10 C-5.525 10.99 -5.525 10.99 -3 12 C-2.67 9.69 -2.34 7.38 -2 5 C-1.01 4.67 -0.02 4.34 1 4 C0.67 2.68 0.34 1.36 0 0 Z " fill="#E5754D" transform="translate(264,296)"/>
<path d="M0 0 C0.66 0.33 1.32 0.66 2 1 C1.67 1.66 1.34 2.32 1 3 C4.96 3.33 8.92 3.66 13 4 C13 4.33 13 4.66 13 5 C11.741875 5.268125 10.48375 5.53625 9.1875 5.8125 C6.89855286 6.40697921 5.11237458 6.93475024 3.0625 8.125 C0.93453063 11.88024006 0.70339709 16.30512623 1.4375 20.5 C1.623125 20.995 1.80875 21.49 2 22 C1.34 22 0.68 22 0 22 C0 21.34 0 20.68 0 20 C-0.66 20 -1.32 20 -2 20 C-2 17.03 -2 14.06 -2 11 C-1.34 11 -0.68 11 0 11 C0 9.35 0 7.7 0 6 C0.99 6 1.98 6 3 6 C3 5.34 3 4.68 3 4 C1.8553125 4.5259375 1.8553125 4.5259375 0.6875 5.0625 C-2 6 -2 6 -5 5 C-3.625 3.5 -3.625 3.5 -2 2 C-1.34 2 -0.68 2 0 2 C0 1.34 0 0.68 0 0 Z " fill="#E7805C" transform="translate(175,282)"/>
<path d="M0 0 C5.42039575 -0.40652968 9.07015675 0.96006486 14 3 C14 4.32 14 5.64 14 7 C8.39 6.34 2.78 5.68 -3 5 C-2.67 4.01 -2.34 3.02 -2 2 C-1.34 2 -0.68 2 0 2 C0 1.34 0 0.68 0 0 Z " fill="#E85829" transform="translate(405,281)"/>
<path d="M0 0 C0.33 0.66 0.66 1.32 1 2 C7.19025353 2.19826435 12.10801277 2.06219553 18 0 C18.99 0.66 19.98 1.32 21 2 C20.75 3.875 20.75 3.875 20 6 C17.9375 7.25 17.9375 7.25 16 8 C15.67 6.68 15.34 5.36 15 4 C14.505 4.165 14.01 4.33 13.5 4.5 C8.60660359 5.47867928 4.27858062 5.85238708 0 3 C0 2.01 0 1.02 0 0 Z " fill="#E47853" transform="translate(400,304)"/>
<path d="M0 0 C0.99 0 1.98 0 3 0 C5.61169091 4.56259255 5.81183132 8.85314704 5 14 C3.60020619 16.75569165 2.05035045 18.64209698 0 21 C-0.99 20.67 -1.98 20.34 -3 20 C-2.505 18.515 -2.505 18.515 -2 17 C-1.34 16.67 -0.68 16.34 0 16 C1.72664863 12.54670274 2.21952523 9.84169158 2 6 C1.34 5.67 0.68 5.34 0 5 C0 3.35 0 1.7 0 0 Z " fill="#223E6B" transform="translate(356,226)"/>
<path d="M0 0 C1.98 0.99 3.96 1.98 6 3 C6 3.66 6 4.32 6 5 C5.01 5.33 4.02 5.66 3 6 C3.33 6.66 3.66 7.32 4 8 C6.58605332 8.4683265 6.58605332 8.4683265 9.5625 8.625 C10.57441406 8.69976562 11.58632812 8.77453125 12.62890625 8.8515625 C13.80259766 8.92503906 13.80259766 8.92503906 15 9 C15 9.33 15 9.66 15 10 C7.44947999 11.46139097 2.87568372 10.34453926 -4 7 C-4 6.34 -4 5.68 -4 5 C-4.99 4.67 -5.98 4.34 -7 4 C-5 3 -5 3 -1 3 C-0.67 2.01 -0.34 1.02 0 0 Z " fill="#E6714C" transform="translate(177,304)"/>
<path d="M0 0 C0.87205078 -0.01224609 1.74410156 -0.02449219 2.64257812 -0.03710938 C3.90038086 -0.04000977 3.90038086 -0.04000977 5.18359375 -0.04296875 C5.9511499 -0.04707764 6.71870605 -0.05118652 7.50952148 -0.05541992 C9.5625 0.1875 9.5625 0.1875 12.5625 2.1875 C12.75 4.8125 12.75 4.8125 12.5625 7.1875 C9.5625 8.1875 9.5625 8.1875 7.375 7.25 C6.776875 6.899375 6.17875 6.54875 5.5625 6.1875 C7.2125 6.1875 8.8625 6.1875 10.5625 6.1875 C10.5625 5.1975 10.5625 4.2075 10.5625 3.1875 C3.6325 3.1875 -3.2975 3.1875 -10.4375 3.1875 C-10.7675 2.5275 -11.0975 1.8675 -11.4375 1.1875 C-7.91593642 -0.57328179 -3.87858049 0.002854 0 0 Z " fill="#E18567" transform="translate(341.4375,279.8125)"/>
<path d="M0 0 C0.99 0 1.98 0 3 0 C3.33 1.65 3.66 3.3 4 5 C5.32 5 6.64 5 8 5 C8.33 5.66 8.66 6.32 9 7 C9.33 5.68 9.66 4.36 10 3 C12 4 12 4 12.75 5.8125 C13.06409025 8.56078973 12.55888362 9.73961876 11 12 C10.01 12.33 9.02 12.66 8 13 C4.3260401 9.62392874 1.94593446 6.60879214 0 2 C0 1.34 0 0.68 0 0 Z " fill="#E67242" transform="translate(296,299)"/>
<path d="M0 0 C0.90105469 0.11085938 1.80210937 0.22171875 2.73046875 0.3359375 C3.76107422 0.47902344 3.76107422 0.47902344 4.8125 0.625 C5.1425 2.605 5.4725 4.585 5.8125 6.625 C5.1525 6.295 4.4925 5.965 3.8125 5.625 C1.77194995 5.55434383 -0.27084257 5.54078024 -2.3125 5.5625 C-3.40820312 5.57152344 -4.50390625 5.58054687 -5.6328125 5.58984375 C-6.89738281 5.60724609 -6.89738281 5.60724609 -8.1875 5.625 C-8.1875 4.305 -8.1875 2.985 -8.1875 1.625 C-4.73535147 -0.67643236 -3.95270676 -0.51333854 0 0 Z " fill="#EA5728" transform="translate(221.1875,281.375)"/>
<path d="M0 0 C0.66 0 1.32 0 2 0 C2 1.32 2 2.64 2 4 C2.99 4.33 3.98 4.66 5 5 C5 5.66 5 6.32 5 7 C5.66 7 6.32 7 7 7 C7 7.99 7 8.98 7 10 C7.66 10 8.32 10 9 10 C8.67 11.65 8.34 13.3 8 15 C7.34 14.67 6.68 14.34 6 14 C6.33 13.34 6.66 12.68 7 12 C6.0409375 12.2784375 6.0409375 12.2784375 5.0625 12.5625 C4.381875 12.706875 3.70125 12.85125 3 13 C2 12 2 12 1.9375 9.4375 C1.958125 8.633125 1.97875 7.82875 2 7 C1.34 7 0.68 7 0 7 C0 4.69 0 2.38 0 0 Z " fill="#ED5624" transform="translate(297,292)"/>
<path d="M0 0 C4.95 0 9.9 0 15 0 C15 1.32 15 2.64 15 4 C10.71 4 6.42 4 2 4 C1.34 2.68 0.68 1.36 0 0 Z " fill="#EE5521" transform="translate(434,309)"/>
<path d="M0 0 C0.33 1.32 0.66 2.64 1 4 C-1.76452033 5.38226016 -4.0461363 5.09525387 -7.125 5.0625 C-8.22070312 5.05347656 -9.31640625 5.04445313 -10.4453125 5.03515625 C-11.70988281 5.01775391 -11.70988281 5.01775391 -13 5 C-13.33 4.01 -13.66 3.02 -14 2 C-12.4176994 1.66179834 -10.83410625 1.32964061 -9.25 1 C-8.36828125 0.814375 -7.4865625 0.62875 -6.578125 0.4375 C-4 0 -4 0 0 0 Z " fill="#EE5521" transform="translate(415,308)"/>
<path d="M0 0 C0.33 0.66 0.66 1.32 1 2 C1.66 2 2.32 2 3 2 C2.34 3.98 1.68 5.96 1 8 C1.66 8 2.32 8 3 8 C3.39180108 9.57925975 3.76280736 11.16368794 4.125 12.75 C4.33382812 13.63171875 4.54265625 14.5134375 4.7578125 15.421875 C5.03088304 18.32875493 4.53508028 19.56661348 3 22 C2.10500818 19.27598126 1.23386739 16.54790316 0.375 13.8125 C0.11976563 13.04357422 -0.13546875 12.27464844 -0.3984375 11.48242188 C-2.19059227 5.68280992 -2.19059227 5.68280992 -1.1484375 1.94921875 C-0.76945313 1.30597656 -0.39046875 0.66273438 0 0 Z " fill="#325079" transform="translate(228,143)"/>
<path d="M0 0 C0.845625 0.639375 1.69125 1.27875 2.5625 1.9375 C5.90728565 4.1966273 8.97396992 4.67791759 13 5 C13 5.33 13 5.66 13 6 C9.7 6 6.4 6 3 6 C3.33 6.99 3.66 7.98 4 9 C3.01 9.33 2.02 9.66 1 10 C-1.2636564 8.59554165 -3.0208685 6.8032087 -5 5 C-2 4 -2 4 1 4 C0.67 2.68 0.34 1.36 0 0 Z " fill="#E76D46" transform="translate(209,303)"/>
<path d="M0 0 C1.299375 0.10054687 1.299375 0.10054687 2.625 0.203125 C5.31381027 0.82225894 6.27897313 1.64400659 8 3.75 C7.01 4.245 7.01 4.245 6 4.75 C6 4.09 6 3.43 6 2.75 C1.71 2.75 -2.58 2.75 -7 2.75 C-7.33 3.74 -7.66 4.73 -8 5.75 C-11.0625 6.9375 -11.0625 6.9375 -14 7.75 C-12.75616297 4.01848892 -11.15652193 3.00465852 -8 0.75 C-4.90341291 -0.2821957 -3.20396973 -0.28606873 0 0 Z " fill="#4F6689" transform="translate(270,219.25)"/>
<path d="M0 0 C-0.1875 2.375 -0.1875 2.375 -1 5 C-3.5625 6.3125 -3.5625 6.3125 -6 7 C-5.773125 7.7425 -5.54625 8.485 -5.3125 9.25 C-5 12 -5 12 -8 16 C-8 12.04 -8 8.08 -8 4 C-7.34 4 -6.68 4 -6 4 C-6 3.34 -6 2.68 -6 2 C-2.25 0 -2.25 0 0 0 Z " fill="#F05525" transform="translate(211,286)"/>
<path d="M0 0 C0.77472656 0.00451172 1.54945313 0.00902344 2.34765625 0.01367188 C4.23180524 0.02530242 6.11591365 0.04323094 8 0.0625 C8 0.7225 8 1.3825 8 2.0625 C0.41 2.3925 -7.18 2.7225 -15 3.0625 C-15 5.7025 -15 8.3425 -15 11.0625 C-17.4294516 7.4183226 -17.16179575 5.35008728 -17 1.0625 C-11.28094617 0.23713655 -5.7732851 -0.06503701 0 0 Z " fill="#627494" transform="translate(224,112.9375)"/>
<path d="M0 0 C7.11341265 -0.45164525 11.71546794 0.67202085 18 4 C18 8 18 8 16.5 9.75 C16.005 10.1625 15.51 10.575 15 11 C12.69 10.01 10.38 9.02 8 8 C11.05263664 7.01879536 12.94736336 7.01879536 16 8 C16 6.68 16 5.36 16 4 C14.824375 3.814375 14.824375 3.814375 13.625 3.625 C9.0646674 2.83873576 4.53432907 1.92299584 0 1 C0 0.67 0 0.34 0 0 Z " fill="#E59A80" transform="translate(403,280)"/>
<path d="M0 0 C0.66 0 1.32 0 2 0 C2.04254356 1.99954746 2.04080783 4.00041636 2 6 C1 7 1 7 -2.37890625 7.09765625 C-3.77347077 7.09098369 -5.16801743 7.07902532 -6.5625 7.0625 C-7.27341797 7.05798828 -7.98433594 7.05347656 -8.71679688 7.04882812 C-10.47790013 7.03700864 -12.23896036 7.01907263 -14 7 C-14.33 8.32 -14.66 9.64 -15 11 C-15.042721 9.33388095 -15.04063832 7.66617115 -15 6 C-14 5 -14 5 -10.83984375 4.90234375 C-8.90818359 4.91974609 -8.90818359 4.91974609 -6.9375 4.9375 C-5.64714844 4.94652344 -4.35679687 4.95554687 -3.02734375 4.96484375 C-2.02832031 4.97644531 -1.02929688 4.98804688 0 5 C0 3.35 0 1.7 0 0 Z " fill="#E79578" transform="translate(351,294)"/>
<path d="M0 0 C1.98 0 3.96 0 6 0 C6 1.65 6 3.3 6 5 C5.01 5.495 5.01 5.495 4 6 C3.67 5.67 3.34 5.34 3 5 C2.34 5.66 1.68 6.32 1 7 C-1.125 7.625 -1.125 7.625 -3 8 C-3.33 7.01 -3.66 6.02 -4 5 C-3.34 4.67 -2.68 4.34 -2 4 C-0.86649466 1.98330173 -0.86649466 1.98330173 0 0 Z " fill="#F25620" transform="translate(270,283)"/>
<path d="M0 0 C5.28 0 10.56 0 16 0 C16 1.65 16 3.3 16 5 C11.96708385 6.04075255 8.21445782 6.0502241 4.0859375 5.9375 C1.80315383 5.90579667 1.80315383 5.90579667 -1 7 C-1.33 6.01 -1.66 5.02 -2 4 C3.61 4 9.22 4 15 4 C15 3.01 15 2.02 15 1 C10.05 1 5.1 1 0 1 C0 0.67 0 0.34 0 0 Z " fill="#DC704D" transform="translate(433,282)"/>
<path d="M0 0 C0.91330078 0.00451172 1.82660156 0.00902344 2.76757812 0.01367188 C4.99095738 0.0253126 7.21419121 0.04166149 9.4375 0.0625 C9.1075 0.7225 8.7775 1.3825 8.4375 2.0625 C-0.9037692 2.67576035 -10.19500185 3.2445896 -19.5625 3.0625 C-19.5625 2.4025 -19.5625 1.7425 -19.5625 1.0625 C-12.99550475 0.21406826 -6.61699407 -0.06311146 0 0 Z " fill="#556B8C" transform="translate(287.5625,199.9375)"/>
<path d="M0 0 C1.62490954 -0.02698189 3.24994633 -0.04638757 4.875 -0.0625 C5.77992188 -0.07410156 6.68484375 -0.08570313 7.6171875 -0.09765625 C10 0 10 0 12 1 C12.042721 2.66611905 12.04063832 4.33382885 12 6 C11 7 11 7 7.62109375 7.09765625 C6.22652923 7.09098369 4.83198257 7.07902532 3.4375 7.0625 C2.72658203 7.05798828 2.01566406 7.05347656 1.28320312 7.04882812 C-0.47790013 7.03700864 -2.23896036 7.01907263 -4 7 C-4 6.67 -4 6.34 -4 6 C0.62 5.67 5.24 5.34 10 5 C10 4.01 10 3.02 10 2 C6.7 1.67 3.4 1.34 0 1 C0 0.67 0 0.34 0 0 Z " fill="#E8987E" transform="translate(129,294)"/>
<path d="M0 0 C0.7734375 -0.00515625 1.546875 -0.0103125 2.34375 -0.015625 C4.5 0.25 4.5 0.25 7.5 2.25 C6.57767578 2.23259766 6.57767578 2.23259766 5.63671875 2.21484375 C4.42435547 2.20130859 4.42435547 2.20130859 3.1875 2.1875 C2.38699219 2.17589844 1.58648437 2.16429687 0.76171875 2.15234375 C-1.66861334 2.15342145 -1.66861334 2.15342145 -4.5 3.25 C-4.17 4.24 -3.84 5.23 -3.5 6.25 C-2.84 6.58 -2.18 6.91 -1.5 7.25 C-3.48 8.57 -5.46 9.89 -7.5 11.25 C-7.58096803 9.79257537 -7.63917774 8.33387193 -7.6875 6.875 C-7.72230469 6.06289063 -7.75710937 5.25078125 -7.79296875 4.4140625 C-7.69628906 3.69992187 -7.59960938 2.98578125 -7.5 2.25 C-4.377998 0.16866533 -3.56733011 -0.0237822 0 0 Z " fill="#E2815B" transform="translate(217.5,279.75)"/>
<path d="M0 0 C0 0.66 0 1.32 0 2 C-0.66 2 -1.32 2 -2 2 C-2 2.66 -2 3.32 -2 4 C0.64 4.33 3.28 4.66 6 5 C6 5.33 6 5.66 6 6 C5.06027344 6.19916016 5.06027344 6.19916016 4.1015625 6.40234375 C2.87566406 6.66724609 2.87566406 6.66724609 1.625 6.9375 C0.40683594 7.19853516 0.40683594 7.19853516 -0.8359375 7.46484375 C-3.029463 7.92330693 -3.029463 7.92330693 -5 9 C-5.625 7.125 -5.625 7.125 -6 5 C-5.34 4.34 -4.68 3.68 -4 3 C-4.66 2.67 -5.32 2.34 -6 2 C-6 2.66 -6 3.32 -6 4 C-7.32 4.33 -8.64 4.66 -10 5 C-7.05274682 0.64929292 -5.38362365 0 0 0 Z " fill="#E57F5C" transform="translate(405,281)"/>
<path d="M0 0 C1.03590199 5.05002222 1.10251672 9.87416389 1 15 C0.34 14.67 -0.32 14.34 -1 14 C-1 10.04 -1 6.08 -1 2 C-3.64 2 -6.28 2 -9 2 C-9 3.65 -9 5.3 -9 7 C-9.99 7.33 -10.98 7.66 -12 8 C-11.42415568 5.61435923 -10.77772405 3.33317216 -10 1 C-6.56484998 0.37542727 -3.50935186 0 0 0 Z " fill="#E2906F" transform="translate(278,280)"/>
<path d="M0 0 C1.1875 1.625 1.1875 1.625 1.1875 3.625 C-1.10545236 3.34361942 -3.39685456 3.0495814 -5.6875 2.75 C-6.96367187 2.58757812 -8.23984375 2.42515625 -9.5546875 2.2578125 C-12.8125 1.625 -12.8125 1.625 -14.8125 -0.375 C-2.66544118 -2.02205882 -2.66544118 -2.02205882 0 0 Z " fill="#EC5726" transform="translate(193.8125,284.375)"/>
<path d="M0 0 C3.96 0 7.92 0 12 0 C12 0.66 12 1.32 12 2 C8.09971775 4.60018816 4.52565431 4.15085514 0 4 C0 2.68 0 1.36 0 0 Z " fill="#EC5623" transform="translate(212,309)"/>
<path d="M0 0 C4.67692308 1.47692308 4.67692308 1.47692308 6.3125 4.125 C6.539375 4.74375 6.76625 5.3625 7 6 C5.68 6 4.36 6 3 6 C1.2488427 7.4166747 1.2488427 7.4166747 0 9 C-1.65 7.35 -3.3 5.7 -5 4 C-2.525 4.495 -2.525 4.495 0 5 C0 3.35 0 1.7 0 0 Z " fill="#E7845E" transform="translate(226,282)"/>
<path d="M0 0 C2 1 2 1 2.62109375 2.765625 C3.02399618 5.14150323 3.09791478 7.34179517 3.0625 9.75 C3.05347656 10.54921875 3.04445312 11.3484375 3.03515625 12.171875 C3.01775391 13.07679688 3.01775391 13.07679688 3 14 C2.01 14 1.02 14 0 14 C-0.91297308 9.02936879 -0.91297308 4.97063121 0 0 Z " fill="#E6744E" transform="translate(233,288)"/>
<path d="M0 0 C2.31 0.33 4.62 0.66 7 1 C6.67 3.31 6.34 5.62 6 8 C3.5625 7.375 3.5625 7.375 1 6 C0.1875 2.875 0.1875 2.875 0 0 Z " fill="#F25623" transform="translate(255,300)"/>
<path d="M0 0 C0.66 0 1.32 0 2 0 C2 0.66 2 1.32 2 2 C2.66 2 3.32 2 4 2 C4.19627391 3.58226965 4.38165538 5.16589271 4.5625 6.75 C4.66691406 7.63171875 4.77132812 8.5134375 4.87890625 9.421875 C4.99456676 11.88432451 4.73638695 13.66538064 4 16 C3.01 16 2.02 16 1 16 C1.18433594 15.29488281 1.36867187 14.58976562 1.55859375 13.86328125 C2.05122973 10.66768679 1.70907101 8.34428787 1.0625 5.1875 C0.86785156 4.21167969 0.67320312 3.23585938 0.47265625 2.23046875 C0.31667969 1.49441406 0.16070312 0.75835937 0 0 Z " fill="#E66435" transform="translate(227,291)"/>
<path d="M0 0 C1.9375 0.6875 1.9375 0.6875 3.9375 1.6875 C3.625 3.5625 3.625 3.5625 2.9375 5.6875 C1.9475 6.3475 0.9575 7.0075 -0.0625 7.6875 C-0.0625 6.0375 -0.0625 4.3875 -0.0625 2.6875 C-4.5175 3.1825 -4.5175 3.1825 -9.0625 3.6875 C-7.7425 3.0275 -6.4225 2.3675 -5.0625 1.6875 C-2.0625 -0.3125 -2.0625 -0.3125 0 0 Z " fill="#E18D72" transform="translate(194.0625,304.3125)"/>
<path d="M0 0 C2.16874252 0.50603992 3.99967627 0.99983813 6 2 C5.75 4.375 5.75 4.375 5 7 C2.9375 8.3125 2.9375 8.3125 1 9 C-0.65 7.68 -2.3 6.36 -4 5 C-2.02 5 -0.04 5 2 5 C1.34 3.35 0.68 1.7 0 0 Z " fill="#E47E5B" transform="translate(192,282)"/>
<path d="M0 0 C5.61 0 11.22 0 17 0 C17 0.66 17 1.32 17 2 C12.05 2.33 7.1 2.66 2 3 C1.34 2.01 0.68 1.02 0 0 Z " fill="#EF561F" transform="translate(334,283)"/>
<path d="M0 0 C1.32 0.33 2.64 0.66 4 1 C3.67 2.65 3.34 4.3 3 6 C2.67 6 2.34 6 2 6 C1.67 11.61 1.34 17.22 1 23 C0.67 23 0.34 23 0 23 C0 15.41 0 7.82 0 0 Z " fill="#EB9C82" transform="translate(292,291)"/>
<path d="M0 0 C2.78712092 1.39356046 3.26463329 3.16505673 4.625 5.9375 C5.07101562 6.83339844 5.51703125 7.72929687 5.9765625 8.65234375 C7 11 7 11 7 13 C5 13 5 13 3.375 11.75 C2 10 2 10 2 6 C1.34 6 0.68 6 0 6 C0 4.02 0 2.04 0 0 Z " fill="#E88663" transform="translate(297,286)"/>
<path d="M0 0 C1.98 0 3.96 0 6 0 C6.33 0.66 6.66 1.32 7 2 C9.3140622 2.73075648 11.64828869 3.40138258 14 4 C14 4.33 14 4.66 14 5 C12.54176788 5.0270043 11.08339325 5.04639787 9.625 5.0625 C8.81289063 5.07410156 8.00078125 5.08570313 7.1640625 5.09765625 C5 5 5 5 3 4 C3 3.34 3 2.68 3 2 C2.01 1.67 1.02 1.34 0 1 C0 0.67 0 0.34 0 0 Z " fill="#4B6386" transform="translate(334,245)"/>
<path d="M0 0 C0.99 0 1.98 0 3 0 C4.90608098 3.21182149 5.22266247 5.53882603 5.125 9.25 C5.10695313 10.14203125 5.08890625 11.0340625 5.0703125 11.953125 C5.03550781 12.96632812 5.03550781 12.96632812 5 14 C4.67 14 4.34 14 4 14 C3.896875 12.88625 3.79375 11.7725 3.6875 10.625 C3.460625 9.42875 3.23375 8.2325 3 7 C2.01 6.34 1.02 5.68 0 5 C-0.1875 2.375 -0.1875 2.375 0 0 Z " fill="#415C83" transform="translate(356,226)"/>
<path d="M0 0 C0.99 0.33 1.98 0.66 3 1 C2.01 1.495 2.01 1.495 1 2 C1 2.66 1 3.32 1 4 C-4.05002222 5.03590199 -8.87416389 5.10251672 -14 5 C-14 4.67 -14 4.34 -14 4 C-13.07316406 3.79503906 -12.14632813 3.59007812 -11.19140625 3.37890625 C-9.99386719 3.10949219 -8.79632813 2.84007812 -7.5625 2.5625 C-6.36753906 2.29566406 -5.17257812 2.02882812 -3.94140625 1.75390625 C-1.1295314 1.29933252 -1.1295314 1.29933252 0 0 Z " fill="#415C80" transform="translate(277,245)"/>
<path d="M0 0 C0.66 0.33 1.32 0.66 2 1 C2 3.31 2 5.62 2 8 C1.67 7.34 1.34 6.68 1 6 C0.34 6 -0.32 6 -1 6 C-1 6.99 -1 7.98 -1 9 C-0.34 9 0.32 9 1 9 C1 9.99 1 10.98 1 12 C0.34 12 -0.32 12 -1 12 C-1.33 12.66 -1.66 13.32 -2 14 C-2 10.7 -2 7.4 -2 4 C-1.34 4 -0.68 4 0 4 C0 2.68 0 1.36 0 0 Z " fill="#EE5726" transform="translate(395,286)"/>
<path d="M0 0 C0.66 0.66 1.32 1.32 2 2 C-1.63 2 -5.26 2 -9 2 C-9 2.99 -9 3.98 -9 5 C-9.99 5 -10.98 5 -12 5 C-12 4.01 -12 3.02 -12 2 C-13.65 2 -15.3 2 -17 2 C-17 1.67 -17 1.34 -17 1 C-14.20880221 0.77885585 -11.4178788 0.57256699 -8.625 0.375 C-7.43390625 0.27832031 -7.43390625 0.27832031 -6.21875 0.1796875 C-4.14971776 0.03941413 -2.07374464 0.01241763 0 0 Z " fill="#465F84" transform="translate(333,200)"/>
<path d="M0 0 C12.66970387 -0.18451025 12.66970387 -0.18451025 18 1 C17.67 1.66 17.34 2.32 17 3 C11.39 2.67 5.78 2.34 0 2 C0 1.34 0 0.68 0 0 Z " fill="#556C8B" transform="translate(341,200)"/>
<path d="M0 0 C1.96792836 1.96792836 2.85283135 3.46756819 4.0625 5.9375 C4.40410156 6.62714844 4.74570312 7.31679688 5.09765625 8.02734375 C6 10 6 10 7 13 C6.34 13.66 5.68 14.32 5 15 C4.71125 14.21625 4.4225 13.4325 4.125 12.625 C3.15087746 9.90328368 3.15087746 9.90328368 1 8 C0.43479997 5.34462628 0.26211802 2.70855287 0 0 Z " fill="#E59277" transform="translate(252,284)"/>
<path d="M0 0 C-3.3957123 2.05701803 -6.0617659 2.26969117 -10 2.25 C-11.546875 2.25773438 -11.546875 2.25773438 -13.125 2.265625 C-15.94597278 2.00499165 -17.60145718 1.45296344 -20 0 C-17.79245484 -0.19656224 -15.58390461 -0.38185459 -13.375 -0.5625 C-12.14523437 -0.66691406 -10.91546875 -0.77132812 -9.6484375 -0.87890625 C-6.24372538 -0.99191061 -3.32441602 -0.69045563 0 0 Z " fill="#072859" transform="translate(321,202)"/>
<path d="M0 0 C0.33 0.66 0.66 1.32 1 2 C2.65 2 4.3 2 6 2 C6 2.33 6 2.66 6 3 C0.77487721 4.46670113 -3.5814234 5.22577402 -9 5 C-9 4.67 -9 4.34 -9 4 C-8.2575 3.896875 -7.515 3.79375 -6.75 3.6875 C-3.82985982 2.95746496 -2.26812446 1.93210602 0 0 Z " fill="#486286" transform="translate(349,170)"/>
<path d="M0 0 C0.33 0.99 0.66 1.98 1 3 C1.66 3 2.32 3 3 3 C2.25 5.4375 2.25 5.4375 1 8 C-1.125 8.8125 -1.125 8.8125 -3 9 C-2.67 7.35 -2.34 5.7 -2 4 C-1.34 4 -0.68 4 0 4 C0 2.68 0 1.36 0 0 Z " fill="#274777" transform="translate(237,126)"/>
<path d="M0 0 C1.32 0.33 2.64 0.66 4 1 C1.525 5.455 1.525 5.455 -1 10 C-1.33 10 -1.66 10 -2 10 C-2.22036864 6.14354879 -1.60355101 3.50776784 0 0 Z " fill="#E37651" transform="translate(311,295)"/>
<path d="M0 0 C0.99 0.33 1.98 0.66 3 1 C3.33 2.65 3.66 4.3 4 6 C3.01 6.66 2.02 7.32 1 8 C0 7 0 7 -0.0625 3.4375 C-0.041875 2.303125 -0.02125 1.16875 0 0 Z " fill="#F15521" transform="translate(381,285)"/>
<path d="M0 0 C0.33 0.66 0.66 1.32 1 2 C3.35599235 2.46751788 3.35599235 2.46751788 6.0625 2.625 C7.44115234 2.73714844 7.44115234 2.73714844 8.84765625 2.8515625 C9.55792969 2.90054687 10.26820313 2.94953125 11 3 C11 3.66 11 4.32 11 5 C9.741875 5.04125 8.48375 5.0825 7.1875 5.125 C6.47980469 5.14820313 5.77210938 5.17140625 5.04296875 5.1953125 C3 5 3 5 0 3 C0 2.01 0 1.02 0 0 Z " fill="#E47F60" transform="translate(400,304)"/>
<path d="M0 0 C-3.4019487 2.09350689 -6.05272412 2.17942163 -10 2 C-10 2.66 -10 3.32 -10 4 C-10.99 4 -11.98 4 -13 4 C-13 3.01 -13 2.02 -13 1 C-8.59085217 -0.10228696 -4.51617599 -0.07654536 0 0 Z " fill="#E45A2C" transform="translate(351,295)"/>
<path d="M0 0 C0.99 0 1.98 0 3 0 C2.34 5.28 1.68 10.56 1 16 C0.67 16 0.34 16 0 16 C0 10.72 0 5.44 0 0 Z " fill="#F04E1B" transform="translate(246,290)"/>
<path d="M0 0 C0.66 0 1.32 0 2 0 C1.98259766 0.90492188 1.98259766 0.90492188 1.96484375 1.828125 C1.95582031 2.62734375 1.94679688 3.4265625 1.9375 4.25 C1.92589844 5.03890625 1.91429687 5.8278125 1.90234375 6.640625 C1.99614694 8.90691002 2.36758937 10.8288895 3 13 C2.01 12.67 1.02 12.34 0 12 C0 8.04 0 4.08 0 0 Z " fill="#E27853" transform="translate(397,291)"/>
<path d="M0 0 C1.65 0 3.3 0 5 0 C5 0.99 5 1.98 5 3 C6.65 3 8.3 3 10 3 C10 3.33 10 3.66 10 4 C7.36 4 4.72 4 2 4 C1.34 2.68 0.68 1.36 0 0 Z " fill="#F15420" transform="translate(179,309)"/>
<path d="M0 0 C0.99 0 1.98 0 3 0 C3 0.66 3 1.32 3 2 C4.32 2 5.64 2 7 2 C7 2.66 7 3.32 7 4 C7.66 4.33 8.32 4.66 9 5 C8.01 5.33 7.02 5.66 6 6 C2.8125 3.625 2.8125 3.625 0 1 C0 0.67 0 0.34 0 0 Z " fill="#DE714E" transform="translate(204,307)"/>
<path d="M0 0 C0.99 0.33 1.98 0.66 3 1 C3 2.65 3 4.3 3 6 C1.68 6 0.36 6 -1 6 C-1.042721 4.33388095 -1.04063832 2.66617115 -1 1 C-0.67 0.67 -0.34 0.34 0 0 Z " fill="#EB5620" transform="translate(362,307)"/>
<path d="M0 0 C0 1.32 0 2.64 0 4 C-2.31 3.67 -4.62 3.34 -7 3 C-5.40442685 -0.19114631 -3.35905282 0 0 0 Z " fill="#F2561F" transform="translate(194,307)"/>
<path d="M0 0 C0.66 0.99 1.32 1.98 2 3 C1.34 3 0.68 3 0 3 C0 4.65 0 6.3 0 8 C-2.31 8 -4.62 8 -7 8 C-6.21625 7.4225 -5.4325 6.845 -4.625 6.25 C-2.19952756 4.17102363 -1.14305583 2.90959667 0 0 Z " fill="#E88566" transform="translate(228,300)"/>
<path d="M0 0 C2.52588702 2.36292656 3.88820837 3.66462511 5 7 C3.35 6.67 1.7 6.34 0 6 C-1 3 -1 3 0 0 Z " fill="#F05525" transform="translate(206,301)"/>
<path d="M0 0 C7.75 -0.125 7.75 -0.125 10 1 C9.67 2.32 9.34 3.64 9 5 C8.608125 4.525625 8.21625 4.05125 7.8125 3.5625 C5.59191626 1.64820367 3.86624291 1.38733012 1 1 C0.67 1.99 0.34 2.98 0 4 C0 2.68 0 1.36 0 0 Z " fill="#DA5F34" transform="translate(242,282)"/>
<path d="M0 0 C2 2 2 2 2.1953125 4.1640625 C2.16050781 5.38222656 2.16050781 5.38222656 2.125 6.625 C2.10695313 7.44226563 2.08890625 8.25953125 2.0703125 9.1015625 C2.04710937 9.72804687 2.02390625 10.35453125 2 11 C1.67 10.34 1.34 9.68 1 9 C0.34 9 -0.32 9 -1 9 C-0.67 6.03 -0.34 3.06 0 0 Z " fill="#536B8B" transform="translate(254,228)"/>
<path d="M0 0 C0.99 0.33 1.98 0.66 3 1 C4.33599181 4.00598158 5.14345053 6.09147996 4.625 9.375 C4.41875 9.91125 4.2125 10.4475 4 11 C1.54176828 7.31265242 0.98757384 4.30300029 0 0 Z " fill="#375274" transform="translate(232,114)"/>
<path d="M0 0 C1.42944945 2.35438733 2.08661261 3.48032433 1.625 6.25 C1.41875 6.8275 1.2125 7.405 1 8 C-0.32 8 -1.64 8 -3 8 C-3 6.68 -3 5.36 -3 4 C-2.34 4 -1.68 4 -1 4 C-0.67 2.68 -0.34 1.36 0 0 Z " fill="#F87540" transform="translate(433,290)"/>
<path d="M0 0 C0.33 0.66 0.66 1.32 1 2 C1.99 1.67 2.98 1.34 4 1 C4 2.32 4 3.64 4 5 C3.01 5.33 2.02 5.66 1 6 C0.34 5.34 -0.32 4.68 -1 4 C-0.625 1.875 -0.625 1.875 0 0 Z " fill="#E85920" transform="translate(228,286)"/>
<path d="M0 0 C0.99 0.33 1.98 0.66 3 1 C3 2.32 3 3.64 3 5 C3.99 5.66 4.98 6.32 6 7 C5.01 7.495 5.01 7.495 4 8 C1 7 1 7 -1 4 C-0.625 1.8125 -0.625 1.8125 0 0 Z " fill="#062B59" transform="translate(333,238)"/>
<path d="M0 0 C-1 2 -1 2 -4 4 C-5.32 4 -6.64 4 -8 4 C-8.33 3.01 -8.66 2.02 -9 1 C-5.94152152 0.45627049 -3.11227195 0 0 0 Z " fill="#052B5C" transform="translate(261,209)"/>
<path d="M0 0 C1.3921875 0.0928125 1.3921875 0.0928125 2.8125 0.1875 C2.8125 0.8475 2.8125 1.5075 2.8125 2.1875 C-1.6425 2.6825 -1.6425 2.6825 -6.1875 3.1875 C-3.1875 0.1875 -3.1875 0.1875 0 0 Z " fill="#3D587D" transform="translate(280.1875,184.8125)"/>
<path d="M0 0 C0.66 0 1.32 0 2 0 C2 0.66 2 1.32 2 2 C2.99 2.33 3.98 2.66 5 3 C4.67 3.99 4.34 4.98 4 6 C5.32 6.33 6.64 6.66 8 7 C7.01 7.33 6.02 7.66 5 8 C1.75267068 6.37633534 1.29844864 3.24612161 0 0 Z " fill="#E6967C" transform="translate(254,304)"/>
<path d="M0 0 C0.66 0 1.32 0 2 0 C3.1577506 3.47325181 3.06866652 6.36067448 3 10 C0.70366176 6.55549263 0.45983515 4.06187717 0 0 Z " fill="#637799" transform="translate(221,127)"/>
<path d="M0 0 C0.99 0 1.98 0 3 0 C3.185625 1.7015625 3.185625 1.7015625 3.375 3.4375 C3.684375 5.2009375 3.684375 5.2009375 4 7 C4.66 7.33 5.32 7.66 6 8 C5.01 8 4.02 8 3 8 C0 2.25 0 2.25 0 0 Z " fill="#ED9D83" transform="translate(296,299)"/>
<path d="M0 0 C-0.33 1.32 -0.66 2.64 -1 4 C-2.32 4 -3.64 4 -5 4 C-4.67 3.01 -4.34 2.02 -4 1 C-2 0 -2 0 0 0 Z " fill="#455B7C" transform="translate(358,242)"/>
<path d="" fill="#FFBFBF" transform="translate(0,0)"/>
</svg>
